solid OpenSCAD_Model
  facet normal -1 0 0
    outer loop
      vertex -2.0625 0.875 0
      vertex -2.0625 2 0.125
      vertex -2.0625 2 0
    endloop
  endfacet
  facet normal -1 -0 0
    outer loop
      vertex -2.0625 2 0.125
      vertex -2.0625 0.875 0
      vertex -2.0625 0.875 0.125
    endloop
  endfacet
  facet normal 1 -0 0
    outer loop
      vertex -0.9375 0.875 0.125
      vertex -0.9375 2 0
      vertex -0.9375 2 0.125
    endloop
  endfacet
  facet normal 1 0 0
    outer loop
      vertex -0.9375 2 0
      vertex -0.9375 0.875 0.125
      vertex -0.9375 0.875 0
    endloop
  endfacet
  facet normal 0 1 -0
    outer loop
      vertex 2.4375 2 -0.125
      vertex 2.0625 2 0
      vertex 2.4375 2 0
    endloop
  endfacet
  facet normal 0 1 0
    outer loop
      vertex 2.0625 2 0
      vertex 2.4375 2 -0.125
      vertex 0.9375 2 0
    endloop
  endfacet
  facet normal 0 1 0
    outer loop
      vertex 0.9375 2 0
      vertex 2.4375 2 -0.125
      vertex 0.5625 2 0
    endloop
  endfacet
  facet normal 0 1 0
    outer loop
      vertex 0.5625 2 0
      vertex 2.4375 2 -0.125
      vertex -0.5625 2 0
    endloop
  endfacet
  facet normal 0 1 0
    outer loop
      vertex -2.4375 2 -0.125
      vertex -0.5625 2 0
      vertex 2.4375 2 -0.125
    endloop
  endfacet
  facet normal 0 1 0
    outer loop
      vertex -0.5625 2 0
      vertex -2.4375 2 -0.125
      vertex -0.9375 2 0
    endloop
  endfacet
  facet normal 0 1 0
    outer loop
      vertex -0.9375 2 0
      vertex -2.4375 2 -0.125
      vertex -2.0625 2 0
    endloop
  endfacet
  facet normal 0 1 0
    outer loop
      vertex -2.0625 2 0
      vertex -2.4375 2 -0.125
      vertex -2.4375 2 0
    endloop
  endfacet
  facet normal 0 1 -0
    outer loop
      vertex 2.0625 2 0
      vertex 0.9375 2 0.125
      vertex 2.0625 2 0.125
    endloop
  endfacet
  facet normal 0 1 0
    outer loop
      vertex 0.9375 2 0.125
      vertex 2.0625 2 0
      vertex 0.9375 2 0
    endloop
  endfacet
  facet normal 0 1 -0
    outer loop
      vertex 0.5625 2 0
      vertex -0.5625 2 0.125
      vertex 0.5625 2 0.125
    endloop
  endfacet
  facet normal 0 1 0
    outer loop
      vertex -0.5625 2 0.125
      vertex 0.5625 2 0
      vertex -0.5625 2 0
    endloop
  endfacet
  facet normal 0 1 -0
    outer loop
      vertex -0.9375 2 0
      vertex -2.0625 2 0.125
      vertex -0.9375 2 0.125
    endloop
  endfacet
  facet normal 0 1 0
    outer loop
      vertex -2.0625 2 0.125
      vertex -0.9375 2 0
      vertex -2.0625 2 0
    endloop
  endfacet
  facet normal 0 -1 0
    outer loop
      vertex -2.0625 0.875 0
      vertex -0.9375 0.875 0.125
      vertex -2.0625 0.875 0.125
    endloop
  endfacet
  facet normal 0 -1 -0
    outer loop
      vertex -0.9375 0.875 0.125
      vertex -2.0625 0.875 0
      vertex -0.9375 0.875 0
    endloop
  endfacet
  facet normal -1 0 0
    outer loop
      vertex -0.5625 0.875 0
      vertex -0.5625 2 0.125
      vertex -0.5625 2 0
    endloop
  endfacet
  facet normal -1 -0 0
    outer loop
      vertex -0.5625 2 0.125
      vertex -0.5625 0.875 0
      vertex -0.5625 0.875 0.125
    endloop
  endfacet
  facet normal 1 -0 0
    outer loop
      vertex 0.5625 0.875 0.125
      vertex 0.5625 2 0
      vertex 0.5625 2 0.125
    endloop
  endfacet
  facet normal 1 0 0
    outer loop
      vertex 0.5625 2 0
      vertex 0.5625 0.875 0.125
      vertex 0.5625 0.875 0
    endloop
  endfacet
  facet normal 0 -1 0
    outer loop
      vertex -0.5625 0.875 0
      vertex 0.5625 0.875 0.125
      vertex -0.5625 0.875 0.125
    endloop
  endfacet
  facet normal 0 -1 -0
    outer loop
      vertex 0.5625 0.875 0.125
      vertex -0.5625 0.875 0
      vertex 0.5625 0.875 0
    endloop
  endfacet
  facet normal -1 0 0
    outer loop
      vertex 0.9375 0.875 0
      vertex 0.9375 2 0.125
      vertex 0.9375 2 0
    endloop
  endfacet
  facet normal -1 -0 0
    outer loop
      vertex 0.9375 2 0.125
      vertex 0.9375 0.875 0
      vertex 0.9375 0.875 0.125
    endloop
  endfacet
  facet normal 1 -0 0
    outer loop
      vertex 2.0625 0.875 0.125
      vertex 2.0625 2 0
      vertex 2.0625 2 0.125
    endloop
  endfacet
  facet normal 1 0 0
    outer loop
      vertex 2.0625 2 0
      vertex 2.0625 0.875 0.125
      vertex 2.0625 0.875 0
    endloop
  endfacet
  facet normal 0 -1 0
    outer loop
      vertex 0.9375 0.875 0
      vertex 2.0625 0.875 0.125
      vertex 0.9375 0.875 0.125
    endloop
  endfacet
  facet normal 0 -1 -0
    outer loop
      vertex 2.0625 0.875 0.125
      vertex 0.9375 0.875 0
      vertex 2.0625 0.875 0
    endloop
  endfacet
  facet normal 0 0 1
    outer loop
      vertex -0.9375 2 0.125
      vertex -1.035 1.9025 0.125
      vertex -0.9375 0.875 0.125
    endloop
  endfacet
  facet normal 0 0 1
    outer loop
      vertex -0.9375 2 0.125
      vertex -1.965 1.9025 0.125
      vertex -1.035 1.9025 0.125
    endloop
  endfacet
  facet normal 0 0 1
    outer loop
      vertex -1.965 1.9025 0.125
      vertex -2.0625 2 0.125
      vertex -1.965 0.972501 0.125
    endloop
  endfacet
  facet normal -0 0 1
    outer loop
      vertex -2.0625 2 0.125
      vertex -1.965 1.9025 0.125
      vertex -0.9375 2 0.125
    endloop
  endfacet
  facet normal -0 0 1
    outer loop
      vertex -1.035 0.972501 0.125
      vertex -0.9375 0.875 0.125
      vertex -1.035 1.9025 0.125
    endloop
  endfacet
  facet normal -0 0 1
    outer loop
      vertex -1.965 0.972501 0.125
      vertex -0.9375 0.875 0.125
      vertex -1.035 0.972501 0.125
    endloop
  endfacet
  facet normal 0 0 1
    outer loop
      vertex -1.965 0.972501 0.125
      vertex -2.0625 0.875 0.125
      vertex -0.9375 0.875 0.125
    endloop
  endfacet
  facet normal 0 0 1
    outer loop
      vertex -2.0625 0.875 0.125
      vertex -1.965 0.972501 0.125
      vertex -2.0625 2 0.125
    endloop
  endfacet
  facet normal 0 0 -1
    outer loop
      vertex -1.25 -1 -0.125
      vertex -1.035 0.972501 -0.125
      vertex -0.75 -1 -0.125
    endloop
  endfacet
  facet normal 0 0 -1
    outer loop
      vertex -1.5 -1 -0.125
      vertex -1.25 -1 -0.125
      vertex -1.5 -1.5 -0.125
    endloop
  endfacet
  facet normal 0 0 -1
    outer loop
      vertex -1.25 -1 -0.125
      vertex -1.5 -1 -0.125
      vertex -1.035 0.972501 -0.125
    endloop
  endfacet
  facet normal 0 0 -1
    outer loop
      vertex -1.5 -1 -0.125
      vertex -1.965 0.972501 -0.125
      vertex -1.035 0.972501 -0.125
    endloop
  endfacet
  facet normal 0 0 -1
    outer loop
      vertex -2.4375 2 -0.125
      vertex -1.965 0.972501 -0.125
      vertex -2 -1 -0.125
    endloop
  endfacet
  facet normal 0 0 -1
    outer loop
      vertex -2 -1 -0.125
      vertex -1.965 0.972501 -0.125
      vertex -1.5 -1 -0.125
    endloop
  endfacet
  facet normal 0 0 -1
    outer loop
      vertex 2.4375 -2 -0.125
      vertex 1.965 0.972501 -0.125
      vertex 2.4375 2 -0.125
    endloop
  endfacet
  facet normal 0 0 -1
    outer loop
      vertex 2.4375 -2 -0.125
      vertex 1.035 0.972501 -0.125
      vertex 1.965 0.972501 -0.125
    endloop
  endfacet
  facet normal 0 0 -1
    outer loop
      vertex 1.035 0.972501 -0.125
      vertex 0.464999 0.972501 -0.125
      vertex 1.035 1.9025 -0.125
    endloop
  endfacet
  facet normal 0 0 -1
    outer loop
      vertex -0.75 -1 -0.125
      vertex 1.035 0.972501 -0.125
      vertex 2.4375 -2 -0.125
    endloop
  endfacet
  facet normal -0 0 -1
    outer loop
      vertex 1.035 0.972501 -0.125
      vertex -0.75 -1 -0.125
      vertex 0.464999 0.972501 -0.125
    endloop
  endfacet
  facet normal -0 0 -1
    outer loop
      vertex 0.464999 0.972501 -0.125
      vertex -0.75 -1 -0.125
      vertex -0.464999 0.972501 -0.125
    endloop
  endfacet
  facet normal 0 0 -1
    outer loop
      vertex -0.75 -1 -0.125
      vertex 2.4375 -2 -0.125
      vertex -0.75 -1.5 -0.125
    endloop
  endfacet
  facet normal 0 0 -1
    outer loop
      vertex -2.4375 -2 -0.125
      vertex -0.75 -1.5 -0.125
      vertex 2.4375 -2 -0.125
    endloop
  endfacet
  facet normal 0 0 -1
    outer loop
      vertex -1.25 -1.5 -0.125
      vertex -1.5 -1.5 -0.125
      vertex -1.25 -1 -0.125
    endloop
  endfacet
  facet normal -0 0 -1
    outer loop
      vertex -0.75 -1.5 -0.125
      vertex -2.4375 -2 -0.125
      vertex -1.25 -1.5 -0.125
    endloop
  endfacet
  facet normal -0 0 -1
    outer loop
      vertex -1.25 -1.5 -0.125
      vertex -2.4375 -2 -0.125
      vertex -1.5 -1.5 -0.125
    endloop
  endfacet
  facet normal -0 0 -1
    outer loop
      vertex -2 -1.5 -0.125
      vertex -2.4375 -2 -0.125
      vertex -2 -1 -0.125
    endloop
  endfacet
  facet normal -0 0 -1
    outer loop
      vertex -1.5 -1.5 -0.125
      vertex -2.4375 -2 -0.125
      vertex -2 -1.5 -0.125
    endloop
  endfacet
  facet normal 0 0 -1
    outer loop
      vertex 1.965 1.9025 -0.125
      vertex 2.4375 2 -0.125
      vertex 1.965 0.972501 -0.125
    endloop
  endfacet
  facet normal 0 0 -1
    outer loop
      vertex 1.035 1.9025 -0.125
      vertex 2.4375 2 -0.125
      vertex 1.965 1.9025 -0.125
    endloop
  endfacet
  facet normal 0 0 -1
    outer loop
      vertex 0.464999 1.9025 -0.125
      vertex 1.035 1.9025 -0.125
      vertex 0.464999 0.972501 -0.125
    endloop
  endfacet
  facet normal 0 0 -1
    outer loop
      vertex 0.464999 1.9025 -0.125
      vertex 2.4375 2 -0.125
      vertex 1.035 1.9025 -0.125
    endloop
  endfacet
  facet normal 0 0 -1
    outer loop
      vertex -0.464999 1.9025 -0.125
      vertex 2.4375 2 -0.125
      vertex 0.464999 1.9025 -0.125
    endloop
  endfacet
  facet normal 0 0 -1
    outer loop
      vertex -1.035 0.972501 -0.125
      vertex -0.464999 0.972501 -0.125
      vertex -0.75 -1 -0.125
    endloop
  endfacet
  facet normal 0 0 -1
    outer loop
      vertex -0.464999 0.972501 -0.125
      vertex -1.035 0.972501 -0.125
      vertex -0.464999 1.9025 -0.125
    endloop
  endfacet
  facet normal 0 0 -1
    outer loop
      vertex -1.035 1.9025 -0.125
      vertex -0.464999 1.9025 -0.125
      vertex -1.035 0.972501 -0.125
    endloop
  endfacet
  facet normal 0 0 -1
    outer loop
      vertex -2.4375 2 -0.125
      vertex -0.464999 1.9025 -0.125
      vertex -1.035 1.9025 -0.125
    endloop
  endfacet
  facet normal 0 0 -1
    outer loop
      vertex -2.4375 2 -0.125
      vertex -1.035 1.9025 -0.125
      vertex -1.965 1.9025 -0.125
    endloop
  endfacet
  facet normal 0 0 -1
    outer loop
      vertex -2.4375 2 -0.125
      vertex -2 -1 -0.125
      vertex -2.4375 -2 -0.125
    endloop
  endfacet
  facet normal 0 0 -1
    outer loop
      vertex -0.464999 1.9025 -0.125
      vertex -2.4375 2 -0.125
      vertex 2.4375 2 -0.125
    endloop
  endfacet
  facet normal 0 0 -1
    outer loop
      vertex -1.965 0.972501 -0.125
      vertex -2.4375 2 -0.125
      vertex -1.965 1.9025 -0.125
    endloop
  endfacet
  facet normal 1 0 0
    outer loop
      vertex -1.965 1.9025 0.125
      vertex -1.965 1.5625 0.0999994
      vertex -1.965 1.9025 -0.125
    endloop
  endfacet
  facet normal 1 0 0
    outer loop
      vertex -1.965 1.9025 0.125
      vertex -1.965 1.3125 0.0999994
      vertex -1.965 1.5625 0.0999994
    endloop
  endfacet
  facet normal 1 0 0
    outer loop
      vertex -1.965 1.3125 0.0999994
      vertex -1.965 0.972501 0.125
      vertex -1.965 1.3125 -0.0999994
    endloop
  endfacet
  facet normal 1 -0 0
    outer loop
      vertex -1.965 0.972501 0.125
      vertex -1.965 1.3125 0.0999994
      vertex -1.965 1.9025 0.125
    endloop
  endfacet
  facet normal 1 -0 0
    outer loop
      vertex -1.965 1.5625 -0.0999994
      vertex -1.965 1.9025 -0.125
      vertex -1.965 1.5625 0.0999994
    endloop
  endfacet
  facet normal 1 -0 0
    outer loop
      vertex -1.965 1.3125 -0.0999994
      vertex -1.965 1.9025 -0.125
      vertex -1.965 1.5625 -0.0999994
    endloop
  endfacet
  facet normal 1 0 0
    outer loop
      vertex -1.965 1.3125 -0.0999994
      vertex -1.965 0.972501 -0.125
      vertex -1.965 1.9025 -0.125
    endloop
  endfacet
  facet normal 1 0 0
    outer loop
      vertex -1.965 0.972501 -0.125
      vertex -1.965 1.3125 -0.0999994
      vertex -1.965 0.972501 0.125
    endloop
  endfacet
  facet normal -1 0 0
    outer loop
      vertex -1.035 1.9025 -0.125
      vertex -1.035 1.5625 -0.0999994
      vertex -1.035 1.9025 0.125
    endloop
  endfacet
  facet normal -1 0 0
    outer loop
      vertex -1.035 1.9025 -0.125
      vertex -1.035 1.3125 -0.0999994
      vertex -1.035 1.5625 -0.0999994
    endloop
  endfacet
  facet normal -1 -0 0
    outer loop
      vertex -1.035 1.3125 -0.0999994
      vertex -1.035 0.972501 -0.125
      vertex -1.035 1.3125 0.0999994
    endloop
  endfacet
  facet normal -1 0 0
    outer loop
      vertex -1.035 0.972501 -0.125
      vertex -1.035 1.3125 -0.0999994
      vertex -1.035 1.9025 -0.125
    endloop
  endfacet
  facet normal -1 0 0
    outer loop
      vertex -1.035 1.5625 0.0999994
      vertex -1.035 1.9025 0.125
      vertex -1.035 1.5625 -0.0999994
    endloop
  endfacet
  facet normal -1 0 0
    outer loop
      vertex -1.035 1.3125 0.0999994
      vertex -1.035 1.9025 0.125
      vertex -1.035 1.5625 0.0999994
    endloop
  endfacet
  facet normal -1 0 0
    outer loop
      vertex -1.035 1.3125 0.0999994
      vertex -1.035 0.972501 0.125
      vertex -1.035 1.9025 0.125
    endloop
  endfacet
  facet normal -1 0 0
    outer loop
      vertex -1.035 0.972501 0.125
      vertex -1.035 1.3125 0.0999994
      vertex -1.035 0.972501 -0.125
    endloop
  endfacet
  facet normal 0 -1 0
    outer loop
      vertex -1.965 1.9025 -0.125
      vertex -1.035 1.9025 0.125
      vertex -1.965 1.9025 0.125
    endloop
  endfacet
  facet normal 0 -1 -0
    outer loop
      vertex -1.035 1.9025 0.125
      vertex -1.965 1.9025 -0.125
      vertex -1.035 1.9025 -0.125
    endloop
  endfacet
  facet normal 0 1 -0
    outer loop
      vertex -1.035 0.972501 -0.125
      vertex -1.965 0.972501 0.125
      vertex -1.035 0.972501 0.125
    endloop
  endfacet
  facet normal 0 1 0
    outer loop
      vertex -1.965 0.972501 0.125
      vertex -1.035 0.972501 -0.125
      vertex -1.965 0.972501 -0.125
    endloop
  endfacet
  facet normal 1 -0 0
    outer loop
      vertex -2 1.3125 0.0999994
      vertex -2 1.5625 -0.0999994
      vertex -2 1.5625 0.0999994
    endloop
  endfacet
  facet normal 1 0 0
    outer loop
      vertex -2 1.5625 -0.0999994
      vertex -2 1.3125 0.0999994
      vertex -2 1.3125 -0.0999994
    endloop
  endfacet
  facet normal 0 0 -1
    outer loop
      vertex -1.035 1.3125 0.0999994
      vertex -1 1.5625 0.0999994
      vertex -1 1.3125 0.0999994
    endloop
  endfacet
  facet normal -0 0 -1
    outer loop
      vertex -1 1.5625 0.0999994
      vertex -1.035 1.3125 0.0999994
      vertex -1.035 1.5625 0.0999994
    endloop
  endfacet
  facet normal 0 0 -1
    outer loop
      vertex -2 1.3125 0.0999994
      vertex -1.965 1.5625 0.0999994
      vertex -1.965 1.3125 0.0999994
    endloop
  endfacet
  facet normal -0 0 -1
    outer loop
      vertex -1.965 1.5625 0.0999994
      vertex -2 1.3125 0.0999994
      vertex -2 1.5625 0.0999994
    endloop
  endfacet
  facet normal -1 0 0
    outer loop
      vertex -1 1.3125 -0.0999994
      vertex -1 1.5625 0.0999994
      vertex -1 1.5625 -0.0999994
    endloop
  endfacet
  facet normal -1 -0 0
    outer loop
      vertex -1 1.5625 0.0999994
      vertex -1 1.3125 -0.0999994
      vertex -1 1.3125 0.0999994
    endloop
  endfacet
  facet normal -0 0 1
    outer loop
      vertex -2 1.5625 -0.0999994
      vertex -1.965 1.3125 -0.0999994
      vertex -1.965 1.5625 -0.0999994
    endloop
  endfacet
  facet normal 0 0 1
    outer loop
      vertex -1.965 1.3125 -0.0999994
      vertex -2 1.5625 -0.0999994
      vertex -2 1.3125 -0.0999994
    endloop
  endfacet
  facet normal -0 0 1
    outer loop
      vertex -1.035 1.5625 -0.0999994
      vertex -1 1.3125 -0.0999994
      vertex -1 1.5625 -0.0999994
    endloop
  endfacet
  facet normal 0 0 1
    outer loop
      vertex -1 1.3125 -0.0999994
      vertex -1.035 1.5625 -0.0999994
      vertex -1.035 1.3125 -0.0999994
    endloop
  endfacet
  facet normal 0 1 -0
    outer loop
      vertex -1 1.3125 -0.0999994
      vertex -1.035 1.3125 0.0999994
      vertex -1 1.3125 0.0999994
    endloop
  endfacet
  facet normal 0 1 0
    outer loop
      vertex -1.035 1.3125 0.0999994
      vertex -1 1.3125 -0.0999994
      vertex -1.035 1.3125 -0.0999994
    endloop
  endfacet
  facet normal 0 1 -0
    outer loop
      vertex -1.965 1.3125 -0.0999994
      vertex -2 1.3125 0.0999994
      vertex -1.965 1.3125 0.0999994
    endloop
  endfacet
  facet normal 0 1 0
    outer loop
      vertex -2 1.3125 0.0999994
      vertex -1.965 1.3125 -0.0999994
      vertex -2 1.3125 -0.0999994
    endloop
  endfacet
  facet normal 0 -1 0
    outer loop
      vertex -1.035 1.5625 -0.0999994
      vertex -1 1.5625 0.0999994
      vertex -1.035 1.5625 0.0999994
    endloop
  endfacet
  facet normal 0 -1 -0
    outer loop
      vertex -1 1.5625 0.0999994
      vertex -1.035 1.5625 -0.0999994
      vertex -1 1.5625 -0.0999994
    endloop
  endfacet
  facet normal 0 -1 0
    outer loop
      vertex -2 1.5625 -0.0999994
      vertex -1.965 1.5625 0.0999994
      vertex -2 1.5625 0.0999994
    endloop
  endfacet
  facet normal 0 -1 -0
    outer loop
      vertex -1.965 1.5625 0.0999994
      vertex -2 1.5625 -0.0999994
      vertex -1.965 1.5625 -0.0999994
    endloop
  endfacet
  facet normal 0 0 1
    outer loop
      vertex 0.5625 2 0.125
      vertex 0.464999 1.9025 0.125
      vertex 0.5625 0.875 0.125
    endloop
  endfacet
  facet normal 0 0 1
    outer loop
      vertex 0.5625 2 0.125
      vertex -0.464999 1.9025 0.125
      vertex 0.464999 1.9025 0.125
    endloop
  endfacet
  facet normal 0 0 1
    outer loop
      vertex -0.464999 1.9025 0.125
      vertex -0.5625 2 0.125
      vertex -0.464999 0.972501 0.125
    endloop
  endfacet
  facet normal -0 0 1
    outer loop
      vertex -0.5625 2 0.125
      vertex -0.464999 1.9025 0.125
      vertex 0.5625 2 0.125
    endloop
  endfacet
  facet normal -0 0 1
    outer loop
      vertex 0.464999 0.972501 0.125
      vertex 0.5625 0.875 0.125
      vertex 0.464999 1.9025 0.125
    endloop
  endfacet
  facet normal -0 0 1
    outer loop
      vertex -0.464999 0.972501 0.125
      vertex 0.5625 0.875 0.125
      vertex 0.464999 0.972501 0.125
    endloop
  endfacet
  facet normal 0 0 1
    outer loop
      vertex -0.464999 0.972501 0.125
      vertex -0.5625 0.875 0.125
      vertex 0.5625 0.875 0.125
    endloop
  endfacet
  facet normal 0 0 1
    outer loop
      vertex -0.5625 0.875 0.125
      vertex -0.464999 0.972501 0.125
      vertex -0.5625 2 0.125
    endloop
  endfacet
  facet normal 1 0 0
    outer loop
      vertex -0.464999 1.9025 0.125
      vertex -0.464999 1.5625 0.0999994
      vertex -0.464999 1.9025 -0.125
    endloop
  endfacet
  facet normal 1 0 0
    outer loop
      vertex -0.464999 1.9025 0.125
      vertex -0.464999 1.3125 0.0999994
      vertex -0.464999 1.5625 0.0999994
    endloop
  endfacet
  facet normal 1 0 0
    outer loop
      vertex -0.464999 1.3125 0.0999994
      vertex -0.464999 0.972501 0.125
      vertex -0.464999 1.3125 -0.0999994
    endloop
  endfacet
  facet normal 1 -0 0
    outer loop
      vertex -0.464999 0.972501 0.125
      vertex -0.464999 1.3125 0.0999994
      vertex -0.464999 1.9025 0.125
    endloop
  endfacet
  facet normal 1 -0 0
    outer loop
      vertex -0.464999 1.5625 -0.0999994
      vertex -0.464999 1.9025 -0.125
      vertex -0.464999 1.5625 0.0999994
    endloop
  endfacet
  facet normal 1 -0 0
    outer loop
      vertex -0.464999 1.3125 -0.0999994
      vertex -0.464999 1.9025 -0.125
      vertex -0.464999 1.5625 -0.0999994
    endloop
  endfacet
  facet normal 1 0 0
    outer loop
      vertex -0.464999 1.3125 -0.0999994
      vertex -0.464999 0.972501 -0.125
      vertex -0.464999 1.9025 -0.125
    endloop
  endfacet
  facet normal 1 0 0
    outer loop
      vertex -0.464999 0.972501 -0.125
      vertex -0.464999 1.3125 -0.0999994
      vertex -0.464999 0.972501 0.125
    endloop
  endfacet
  facet normal -1 0 0
    outer loop
      vertex 0.464999 1.9025 -0.125
      vertex 0.464999 1.5625 -0.0999994
      vertex 0.464999 1.9025 0.125
    endloop
  endfacet
  facet normal -1 0 0
    outer loop
      vertex 0.464999 1.9025 -0.125
      vertex 0.464999 1.3125 -0.0999994
      vertex 0.464999 1.5625 -0.0999994
    endloop
  endfacet
  facet normal -1 -0 0
    outer loop
      vertex 0.464999 1.3125 -0.0999994
      vertex 0.464999 0.972501 -0.125
      vertex 0.464999 1.3125 0.0999994
    endloop
  endfacet
  facet normal -1 0 0
    outer loop
      vertex 0.464999 0.972501 -0.125
      vertex 0.464999 1.3125 -0.0999994
      vertex 0.464999 1.9025 -0.125
    endloop
  endfacet
  facet normal -1 0 0
    outer loop
      vertex 0.464999 1.5625 0.0999994
      vertex 0.464999 1.9025 0.125
      vertex 0.464999 1.5625 -0.0999994
    endloop
  endfacet
  facet normal -1 0 0
    outer loop
      vertex 0.464999 1.3125 0.0999994
      vertex 0.464999 1.9025 0.125
      vertex 0.464999 1.5625 0.0999994
    endloop
  endfacet
  facet normal -1 0 0
    outer loop
      vertex 0.464999 1.3125 0.0999994
      vertex 0.464999 0.972501 0.125
      vertex 0.464999 1.9025 0.125
    endloop
  endfacet
  facet normal -1 0 0
    outer loop
      vertex 0.464999 0.972501 0.125
      vertex 0.464999 1.3125 0.0999994
      vertex 0.464999 0.972501 -0.125
    endloop
  endfacet
  facet normal 0 -1 0
    outer loop
      vertex -0.464999 1.9025 -0.125
      vertex 0.464999 1.9025 0.125
      vertex -0.464999 1.9025 0.125
    endloop
  endfacet
  facet normal 0 -1 -0
    outer loop
      vertex 0.464999 1.9025 0.125
      vertex -0.464999 1.9025 -0.125
      vertex 0.464999 1.9025 -0.125
    endloop
  endfacet
  facet normal 0 1 -0
    outer loop
      vertex 0.464999 0.972501 -0.125
      vertex -0.464999 0.972501 0.125
      vertex 0.464999 0.972501 0.125
    endloop
  endfacet
  facet normal 0 1 0
    outer loop
      vertex -0.464999 0.972501 0.125
      vertex 0.464999 0.972501 -0.125
      vertex -0.464999 0.972501 -0.125
    endloop
  endfacet
  facet normal 1 -0 0
    outer loop
      vertex -0.5 1.3125 0.0999994
      vertex -0.5 1.5625 -0.0999994
      vertex -0.5 1.5625 0.0999994
    endloop
  endfacet
  facet normal 1 0 0
    outer loop
      vertex -0.5 1.5625 -0.0999994
      vertex -0.5 1.3125 0.0999994
      vertex -0.5 1.3125 -0.0999994
    endloop
  endfacet
  facet normal 0 0 -1
    outer loop
      vertex 0.464999 1.3125 0.0999994
      vertex 0.5 1.5625 0.0999994
      vertex 0.5 1.3125 0.0999994
    endloop
  endfacet
  facet normal -0 0 -1
    outer loop
      vertex 0.5 1.5625 0.0999994
      vertex 0.464999 1.3125 0.0999994
      vertex 0.464999 1.5625 0.0999994
    endloop
  endfacet
  facet normal 0 0 -1
    outer loop
      vertex -0.5 1.3125 0.0999994
      vertex -0.464999 1.5625 0.0999994
      vertex -0.464999 1.3125 0.0999994
    endloop
  endfacet
  facet normal -0 0 -1
    outer loop
      vertex -0.464999 1.5625 0.0999994
      vertex -0.5 1.3125 0.0999994
      vertex -0.5 1.5625 0.0999994
    endloop
  endfacet
  facet normal -1 0 0
    outer loop
      vertex 0.5 1.3125 -0.0999994
      vertex 0.5 1.5625 0.0999994
      vertex 0.5 1.5625 -0.0999994
    endloop
  endfacet
  facet normal -1 -0 0
    outer loop
      vertex 0.5 1.5625 0.0999994
      vertex 0.5 1.3125 -0.0999994
      vertex 0.5 1.3125 0.0999994
    endloop
  endfacet
  facet normal -0 0 1
    outer loop
      vertex -0.5 1.5625 -0.0999994
      vertex -0.464999 1.3125 -0.0999994
      vertex -0.464999 1.5625 -0.0999994
    endloop
  endfacet
  facet normal 0 0 1
    outer loop
      vertex -0.464999 1.3125 -0.0999994
      vertex -0.5 1.5625 -0.0999994
      vertex -0.5 1.3125 -0.0999994
    endloop
  endfacet
  facet normal -0 0 1
    outer loop
      vertex 0.464999 1.5625 -0.0999994
      vertex 0.5 1.3125 -0.0999994
      vertex 0.5 1.5625 -0.0999994
    endloop
  endfacet
  facet normal 0 0 1
    outer loop
      vertex 0.5 1.3125 -0.0999994
      vertex 0.464999 1.5625 -0.0999994
      vertex 0.464999 1.3125 -0.0999994
    endloop
  endfacet
  facet normal 0 1 -0
    outer loop
      vertex 0.5 1.3125 -0.0999994
      vertex 0.464999 1.3125 0.0999994
      vertex 0.5 1.3125 0.0999994
    endloop
  endfacet
  facet normal 0 1 0
    outer loop
      vertex 0.464999 1.3125 0.0999994
      vertex 0.5 1.3125 -0.0999994
      vertex 0.464999 1.3125 -0.0999994
    endloop
  endfacet
  facet normal 0 1 -0
    outer loop
      vertex -0.464999 1.3125 -0.0999994
      vertex -0.5 1.3125 0.0999994
      vertex -0.464999 1.3125 0.0999994
    endloop
  endfacet
  facet normal 0 1 0
    outer loop
      vertex -0.5 1.3125 0.0999994
      vertex -0.464999 1.3125 -0.0999994
      vertex -0.5 1.3125 -0.0999994
    endloop
  endfacet
  facet normal 0 -1 0
    outer loop
      vertex 0.464999 1.5625 -0.0999994
      vertex 0.5 1.5625 0.0999994
      vertex 0.464999 1.5625 0.0999994
    endloop
  endfacet
  facet normal 0 -1 -0
    outer loop
      vertex 0.5 1.5625 0.0999994
      vertex 0.464999 1.5625 -0.0999994
      vertex 0.5 1.5625 -0.0999994
    endloop
  endfacet
  facet normal 0 -1 0
    outer loop
      vertex -0.5 1.5625 -0.0999994
      vertex -0.464999 1.5625 0.0999994
      vertex -0.5 1.5625 0.0999994
    endloop
  endfacet
  facet normal 0 -1 -0
    outer loop
      vertex -0.464999 1.5625 0.0999994
      vertex -0.5 1.5625 -0.0999994
      vertex -0.464999 1.5625 -0.0999994
    endloop
  endfacet
  facet normal 0 0 1
    outer loop
      vertex 2.0625 2 0.125
      vertex 1.965 1.9025 0.125
      vertex 2.0625 0.875 0.125
    endloop
  endfacet
  facet normal 0 0 1
    outer loop
      vertex 2.0625 2 0.125
      vertex 1.035 1.9025 0.125
      vertex 1.965 1.9025 0.125
    endloop
  endfacet
  facet normal 0 0 1
    outer loop
      vertex 1.035 1.9025 0.125
      vertex 0.9375 2 0.125
      vertex 1.035 0.972501 0.125
    endloop
  endfacet
  facet normal -0 0 1
    outer loop
      vertex 0.9375 2 0.125
      vertex 1.035 1.9025 0.125
      vertex 2.0625 2 0.125
    endloop
  endfacet
  facet normal -0 0 1
    outer loop
      vertex 1.965 0.972501 0.125
      vertex 2.0625 0.875 0.125
      vertex 1.965 1.9025 0.125
    endloop
  endfacet
  facet normal -0 0 1
    outer loop
      vertex 1.035 0.972501 0.125
      vertex 2.0625 0.875 0.125
      vertex 1.965 0.972501 0.125
    endloop
  endfacet
  facet normal 0 0 1
    outer loop
      vertex 1.035 0.972501 0.125
      vertex 0.9375 0.875 0.125
      vertex 2.0625 0.875 0.125
    endloop
  endfacet
  facet normal 0 0 1
    outer loop
      vertex 0.9375 0.875 0.125
      vertex 1.035 0.972501 0.125
      vertex 0.9375 2 0.125
    endloop
  endfacet
  facet normal 1 0 0
    outer loop
      vertex 1.035 1.9025 0.125
      vertex 1.035 1.5625 0.0999994
      vertex 1.035 1.9025 -0.125
    endloop
  endfacet
  facet normal 1 0 0
    outer loop
      vertex 1.035 1.9025 0.125
      vertex 1.035 1.3125 0.0999994
      vertex 1.035 1.5625 0.0999994
    endloop
  endfacet
  facet normal 1 0 0
    outer loop
      vertex 1.035 1.3125 0.0999994
      vertex 1.035 0.972501 0.125
      vertex 1.035 1.3125 -0.0999994
    endloop
  endfacet
  facet normal 1 -0 0
    outer loop
      vertex 1.035 0.972501 0.125
      vertex 1.035 1.3125 0.0999994
      vertex 1.035 1.9025 0.125
    endloop
  endfacet
  facet normal 1 -0 0
    outer loop
      vertex 1.035 1.5625 -0.0999994
      vertex 1.035 1.9025 -0.125
      vertex 1.035 1.5625 0.0999994
    endloop
  endfacet
  facet normal 1 -0 0
    outer loop
      vertex 1.035 1.3125 -0.0999994
      vertex 1.035 1.9025 -0.125
      vertex 1.035 1.5625 -0.0999994
    endloop
  endfacet
  facet normal 1 0 0
    outer loop
      vertex 1.035 1.3125 -0.0999994
      vertex 1.035 0.972501 -0.125
      vertex 1.035 1.9025 -0.125
    endloop
  endfacet
  facet normal 1 0 0
    outer loop
      vertex 1.035 0.972501 -0.125
      vertex 1.035 1.3125 -0.0999994
      vertex 1.035 0.972501 0.125
    endloop
  endfacet
  facet normal -1 0 0
    outer loop
      vertex 1.965 1.9025 -0.125
      vertex 1.965 1.5625 -0.0999994
      vertex 1.965 1.9025 0.125
    endloop
  endfacet
  facet normal -1 0 0
    outer loop
      vertex 1.965 1.9025 -0.125
      vertex 1.965 1.3125 -0.0999994
      vertex 1.965 1.5625 -0.0999994
    endloop
  endfacet
  facet normal -1 -0 0
    outer loop
      vertex 1.965 1.3125 -0.0999994
      vertex 1.965 0.972501 -0.125
      vertex 1.965 1.3125 0.0999994
    endloop
  endfacet
  facet normal -1 0 0
    outer loop
      vertex 1.965 0.972501 -0.125
      vertex 1.965 1.3125 -0.0999994
      vertex 1.965 1.9025 -0.125
    endloop
  endfacet
  facet normal -1 0 0
    outer loop
      vertex 1.965 1.5625 0.0999994
      vertex 1.965 1.9025 0.125
      vertex 1.965 1.5625 -0.0999994
    endloop
  endfacet
  facet normal -1 0 0
    outer loop
      vertex 1.965 1.3125 0.0999994
      vertex 1.965 1.9025 0.125
      vertex 1.965 1.5625 0.0999994
    endloop
  endfacet
  facet normal -1 0 0
    outer loop
      vertex 1.965 1.3125 0.0999994
      vertex 1.965 0.972501 0.125
      vertex 1.965 1.9025 0.125
    endloop
  endfacet
  facet normal -1 0 0
    outer loop
      vertex 1.965 0.972501 0.125
      vertex 1.965 1.3125 0.0999994
      vertex 1.965 0.972501 -0.125
    endloop
  endfacet
  facet normal 0 -1 0
    outer loop
      vertex 1.035 1.9025 -0.125
      vertex 1.965 1.9025 0.125
      vertex 1.035 1.9025 0.125
    endloop
  endfacet
  facet normal 0 -1 -0
    outer loop
      vertex 1.965 1.9025 0.125
      vertex 1.035 1.9025 -0.125
      vertex 1.965 1.9025 -0.125
    endloop
  endfacet
  facet normal 0 1 -0
    outer loop
      vertex 1.965 0.972501 -0.125
      vertex 1.035 0.972501 0.125
      vertex 1.965 0.972501 0.125
    endloop
  endfacet
  facet normal 0 1 0
    outer loop
      vertex 1.035 0.972501 0.125
      vertex 1.965 0.972501 -0.125
      vertex 1.035 0.972501 -0.125
    endloop
  endfacet
  facet normal 1 -0 0
    outer loop
      vertex 1 1.3125 0.0999994
      vertex 1 1.5625 -0.0999994
      vertex 1 1.5625 0.0999994
    endloop
  endfacet
  facet normal 1 0 0
    outer loop
      vertex 1 1.5625 -0.0999994
      vertex 1 1.3125 0.0999994
      vertex 1 1.3125 -0.0999994
    endloop
  endfacet
  facet normal 0 0 -1
    outer loop
      vertex 1.965 1.3125 0.0999994
      vertex 2 1.5625 0.0999994
      vertex 2 1.3125 0.0999994
    endloop
  endfacet
  facet normal -0 0 -1
    outer loop
      vertex 2 1.5625 0.0999994
      vertex 1.965 1.3125 0.0999994
      vertex 1.965 1.5625 0.0999994
    endloop
  endfacet
  facet normal 0 0 -1
    outer loop
      vertex 1 1.3125 0.0999994
      vertex 1.035 1.5625 0.0999994
      vertex 1.035 1.3125 0.0999994
    endloop
  endfacet
  facet normal -0 0 -1
    outer loop
      vertex 1.035 1.5625 0.0999994
      vertex 1 1.3125 0.0999994
      vertex 1 1.5625 0.0999994
    endloop
  endfacet
  facet normal -1 0 0
    outer loop
      vertex 2 1.3125 -0.0999994
      vertex 2 1.5625 0.0999994
      vertex 2 1.5625 -0.0999994
    endloop
  endfacet
  facet normal -1 -0 0
    outer loop
      vertex 2 1.5625 0.0999994
      vertex 2 1.3125 -0.0999994
      vertex 2 1.3125 0.0999994
    endloop
  endfacet
  facet normal -0 0 1
    outer loop
      vertex 1 1.5625 -0.0999994
      vertex 1.035 1.3125 -0.0999994
      vertex 1.035 1.5625 -0.0999994
    endloop
  endfacet
  facet normal 0 0 1
    outer loop
      vertex 1.035 1.3125 -0.0999994
      vertex 1 1.5625 -0.0999994
      vertex 1 1.3125 -0.0999994
    endloop
  endfacet
  facet normal -0 0 1
    outer loop
      vertex 1.965 1.5625 -0.0999994
      vertex 2 1.3125 -0.0999994
      vertex 2 1.5625 -0.0999994
    endloop
  endfacet
  facet normal 0 0 1
    outer loop
      vertex 2 1.3125 -0.0999994
      vertex 1.965 1.5625 -0.0999994
      vertex 1.965 1.3125 -0.0999994
    endloop
  endfacet
  facet normal 0 1 -0
    outer loop
      vertex 2 1.3125 -0.0999994
      vertex 1.965 1.3125 0.0999994
      vertex 2 1.3125 0.0999994
    endloop
  endfacet
  facet normal 0 1 0
    outer loop
      vertex 1.965 1.3125 0.0999994
      vertex 2 1.3125 -0.0999994
      vertex 1.965 1.3125 -0.0999994
    endloop
  endfacet
  facet normal 0 1 -0
    outer loop
      vertex 1.035 1.3125 -0.0999994
      vertex 1 1.3125 0.0999994
      vertex 1.035 1.3125 0.0999994
    endloop
  endfacet
  facet normal 0 1 0
    outer loop
      vertex 1 1.3125 0.0999994
      vertex 1.035 1.3125 -0.0999994
      vertex 1 1.3125 -0.0999994
    endloop
  endfacet
  facet normal 0 -1 0
    outer loop
      vertex 1.965 1.5625 -0.0999994
      vertex 2 1.5625 0.0999994
      vertex 1.965 1.5625 0.0999994
    endloop
  endfacet
  facet normal 0 -1 -0
    outer loop
      vertex 2 1.5625 0.0999994
      vertex 1.965 1.5625 -0.0999994
      vertex 2 1.5625 -0.0999994
    endloop
  endfacet
  facet normal 0 -1 0
    outer loop
      vertex 1 1.5625 -0.0999994
      vertex 1.035 1.5625 0.0999994
      vertex 1 1.5625 0.0999994
    endloop
  endfacet
  facet normal 0 -1 -0
    outer loop
      vertex 1.035 1.5625 0.0999994
      vertex 1 1.5625 -0.0999994
      vertex 1.035 1.5625 -0.0999994
    endloop
  endfacet
  facet normal 1 -0 0
    outer loop
      vertex -2 -1.5 0
      vertex -2 -1 -0.125
      vertex -2 -1 0
    endloop
  endfacet
  facet normal 1 0 0
    outer loop
      vertex -2 -1 -0.125
      vertex -2 -1.5 0
      vertex -2 -1.5 -0.125
    endloop
  endfacet
  facet normal -1 0 0
    outer loop
      vertex -1.5 -1.5 -0.125
      vertex -1.5 -1 0
      vertex -1.5 -1 -0.125
    endloop
  endfacet
  facet normal -1 -0 0
    outer loop
      vertex -1.5 -1 0
      vertex -1.5 -1.5 -0.125
      vertex -1.5 -1.5 0
    endloop
  endfacet
  facet normal 0 -1 0
    outer loop
      vertex -2 -1 -0.125
      vertex -1.5 -1 0
      vertex -2 -1 0
    endloop
  endfacet
  facet normal 0 -1 -0
    outer loop
      vertex -1.5 -1 0
      vertex -2 -1 -0.125
      vertex -1.5 -1 -0.125
    endloop
  endfacet
  facet normal 0 1 -0
    outer loop
      vertex -1.5 -1.5 -0.125
      vertex -2 -1.5 0
      vertex -1.5 -1.5 0
    endloop
  endfacet
  facet normal 0 1 0
    outer loop
      vertex -2 -1.5 0
      vertex -1.5 -1.5 -0.125
      vertex -2 -1.5 -0.125
    endloop
  endfacet
  facet normal 1 -0 0
    outer loop
      vertex -1.25 -1.5 0
      vertex -1.25 -1 -0.125
      vertex -1.25 -1 0
    endloop
  endfacet
  facet normal 1 0 0
    outer loop
      vertex -1.25 -1 -0.125
      vertex -1.25 -1.5 0
      vertex -1.25 -1.5 -0.125
    endloop
  endfacet
  facet normal -1 0 0
    outer loop
      vertex -0.75 -1.5 -0.125
      vertex -0.75 -1 0
      vertex -0.75 -1 -0.125
    endloop
  endfacet
  facet normal -1 -0 0
    outer loop
      vertex -0.75 -1 0
      vertex -0.75 -1.5 -0.125
      vertex -0.75 -1.5 0
    endloop
  endfacet
  facet normal 0 -1 0
    outer loop
      vertex -1.25 -1 -0.125
      vertex -0.75 -1 0
      vertex -1.25 -1 0
    endloop
  endfacet
  facet normal 0 -1 -0
    outer loop
      vertex -0.75 -1 0
      vertex -1.25 -1 -0.125
      vertex -0.75 -1 -0.125
    endloop
  endfacet
  facet normal 0 1 -0
    outer loop
      vertex -0.75 -1.5 -0.125
      vertex -1.25 -1.5 0
      vertex -0.75 -1.5 0
    endloop
  endfacet
  facet normal 0 1 0
    outer loop
      vertex -1.25 -1.5 0
      vertex -0.75 -1.5 -0.125
      vertex -1.25 -1.5 -0.125
    endloop
  endfacet
  facet normal -1 0 0
    outer loop
      vertex -2.4375 -2 -0.125
      vertex -2.4375 2 0
      vertex -2.4375 2 -0.125
    endloop
  endfacet
  facet normal -1 -0 0
    outer loop
      vertex -2.4375 2 0
      vertex -2.4375 -2 -0.125
      vertex -2.4375 -2 0
    endloop
  endfacet
  facet normal 0 0 1
    outer loop
      vertex -2.0625 2 0
      vertex -2.4375 2 0
      vertex -2.0625 0.875 0
    endloop
  endfacet
  facet normal 0 0 1
    outer loop
      vertex -0.9375 0.875 0
      vertex -0.5625 0.875 0
      vertex -0.5625 2 0
    endloop
  endfacet
  facet normal 0 0 1
    outer loop
      vertex -0.9375 0.875 0
      vertex -0.5625 2 0
      vertex -0.9375 2 0
    endloop
  endfacet
  facet normal 0 0 1
    outer loop
      vertex -0.5625 0.875 0
      vertex -0.9375 0.875 0
      vertex -0.75 -1 0
    endloop
  endfacet
  facet normal 0 0 1
    outer loop
      vertex -0.9375 0.875 0
      vertex -1.25 -1 0
      vertex -0.75 -1 0
    endloop
  endfacet
  facet normal 0 0 1
    outer loop
      vertex -1.25 -1 0
      vertex -1.5 -1 0
      vertex -1.25 -1.5 0
    endloop
  endfacet
  facet normal 0 0 1
    outer loop
      vertex -0.9375 0.875 0
      vertex -1.5 -1 0
      vertex -1.25 -1 0
    endloop
  endfacet
  facet normal -0 0 1
    outer loop
      vertex -2.0625 0.875 0
      vertex -1.5 -1 0
      vertex -0.9375 0.875 0
    endloop
  endfacet
  facet normal 0 0 1
    outer loop
      vertex -2.4375 -2 0
      vertex -2 -1 0
      vertex -2.0625 0.875 0
    endloop
  endfacet
  facet normal 0 0 1
    outer loop
      vertex -1.5 -1 0
      vertex -2.0625 0.875 0
      vertex -2 -1 0
    endloop
  endfacet
  facet normal 0 0 1
    outer loop
      vertex 0.9375 2 0
      vertex 0.5625 2 0
      vertex 0.9375 0.875 0
    endloop
  endfacet
  facet normal 0 0 1
    outer loop
      vertex 2.0625 0.875 0
      vertex 2.4375 2 0
      vertex 2.0625 2 0
    endloop
  endfacet
  facet normal 0 0 1
    outer loop
      vertex 2.4375 2 0
      vertex 2.0625 0.875 0
      vertex 2.4375 -2 0
    endloop
  endfacet
  facet normal -0 0 1
    outer loop
      vertex 0.9375 0.875 0
      vertex 2.4375 -2 0
      vertex 2.0625 0.875 0
    endloop
  endfacet
  facet normal 0 0 1
    outer loop
      vertex 0.5625 0.875 0
      vertex 0.9375 0.875 0
      vertex 0.5625 2 0
    endloop
  endfacet
  facet normal 0 0 1
    outer loop
      vertex -0.75 -1 0
      vertex 0.9375 0.875 0
      vertex 0.5625 0.875 0
    endloop
  endfacet
  facet normal 0 0 1
    outer loop
      vertex -0.75 -1 0
      vertex 0.5625 0.875 0
      vertex -0.5625 0.875 0
    endloop
  endfacet
  facet normal 0 0 1
    outer loop
      vertex 0.9375 0.875 0
      vertex -0.75 -1 0
      vertex 2.4375 -2 0
    endloop
  endfacet
  facet normal -0 0 1
    outer loop
      vertex -0.75 -1.5 0
      vertex 2.4375 -2 0
      vertex -0.75 -1 0
    endloop
  endfacet
  facet normal 0 0 1
    outer loop
      vertex -2.4375 -2 0
      vertex -0.75 -1.5 0
      vertex -1.25 -1.5 0
    endloop
  endfacet
  facet normal 0 0 1
    outer loop
      vertex -1.5 -1.5 0
      vertex -1.25 -1.5 0
      vertex -1.5 -1 0
    endloop
  endfacet
  facet normal 0 0 1
    outer loop
      vertex -2.4375 -2 0
      vertex -1.25 -1.5 0
      vertex -1.5 -1.5 0
    endloop
  endfacet
  facet normal 0 0 1
    outer loop
      vertex -2.4375 -2 0
      vertex -1.5 -1.5 0
      vertex -2 -1.5 0
    endloop
  endfacet
  facet normal 0 0 1
    outer loop
      vertex -2.4375 -2 0
      vertex -2.0625 0.875 0
      vertex -2.4375 2 0
    endloop
  endfacet
  facet normal 0 0 1
    outer loop
      vertex -0.75 -1.5 0
      vertex -2.4375 -2 0
      vertex 2.4375 -2 0
    endloop
  endfacet
  facet normal 0 0 1
    outer loop
      vertex -2 -1 0
      vertex -2.4375 -2 0
      vertex -2 -1.5 0
    endloop
  endfacet
  facet normal 1 -0 0
    outer loop
      vertex 2.4375 -2 0
      vertex 2.4375 2 -0.125
      vertex 2.4375 2 0
    endloop
  endfacet
  facet normal 1 0 0
    outer loop
      vertex 2.4375 2 -0.125
      vertex 2.4375 -2 0
      vertex 2.4375 -2 -0.125
    endloop
  endfacet
  facet normal 0 -1 0
    outer loop
      vertex -2.4375 -2 -0.125
      vertex 2.4375 -2 0
      vertex -2.4375 -2 0
    endloop
  endfacet
  facet normal 0 -1 -0
    outer loop
      vertex 2.4375 -2 0
      vertex -2.4375 -2 -0.125
      vertex 2.4375 -2 -0.125
    endloop
  endfacet
endsolid OpenSCAD_Model
