solid OpenSCAD_Model
  facet normal -1 0 0
    outer loop
      vertex 0 1.125 0
      vertex 0 0.875 0.125
      vertex 0 1.125 0.125
    endloop
  endfacet
  facet normal -1 0 0
    outer loop
      vertex 0 0.875 0.125
      vertex 0 -0.0625 0.1875
      vertex 0 0.875 0.1875
    endloop
  endfacet
  facet normal -1 0 0
    outer loop
      vertex 0 -0.25 0
      vertex 0 0.875 0.125
      vertex 0 1.125 0
    endloop
  endfacet
  facet normal -1 -0 0
    outer loop
      vertex 0 0.875 0.125
      vertex 0 -0.25 0
      vertex 0 -0.0625 0.1875
    endloop
  endfacet
  facet normal -1 0 0
    outer loop
      vertex 0 -0.25 0.1875
      vertex 0 -0.0625 0.1875
      vertex 0 -0.25 0
    endloop
  endfacet
  facet normal -1 0 0
    outer loop
      vertex 0 -0.0625 0.1875
      vertex 0 -0.25 0.1875
      vertex 0 -0.0625 0.25
    endloop
  endfacet
  facet normal -1 0 0
    outer loop
      vertex 0 -1.0625 0.25
      vertex 0 -0.25 0.1875
      vertex 0 -1.0625 0.1875
    endloop
  endfacet
  facet normal -1 0 0
    outer loop
      vertex 0 -0.25 0.1875
      vertex 0 -1.0625 0.25
      vertex 0 -0.0625 0.25
    endloop
  endfacet
  facet normal -0 0 1
    outer loop
      vertex 0.1396 -0.927753 0.25
      vertex 0.1875 -1.0625 0.25
      vertex 0.1875 -0.0625 0.25
    endloop
  endfacet
  facet normal 0 0 1
    outer loop
      vertex 0.1875 -1.0625 0.25
      vertex 0.1396 -0.927753 0.25
      vertex 0.140625 -0.9375 0.25
    endloop
  endfacet
  facet normal 0 0 1
    outer loop
      vertex 0.1875 -0.0625 0.25
      vertex 0.136572 -0.918434 0.25
      vertex 0.1396 -0.927753 0.25
    endloop
  endfacet
  facet normal 0 0 1
    outer loop
      vertex 0.1875 -0.0625 0.25
      vertex 0.131672 -0.909947 0.25
      vertex 0.136572 -0.918434 0.25
    endloop
  endfacet
  facet normal 0 0 1
    outer loop
      vertex 0.1875 -0.0625 0.25
      vertex 0.125115 -0.902664 0.25
      vertex 0.131672 -0.909947 0.25
    endloop
  endfacet
  facet normal 0 0 1
    outer loop
      vertex 0.1875 -0.0625 0.25
      vertex 0.117188 -0.896905 0.25
      vertex 0.125115 -0.902664 0.25
    endloop
  endfacet
  facet normal 0 0 1
    outer loop
      vertex 0.1875 -0.0625 0.25
      vertex 0.108234 -0.892919 0.25
      vertex 0.117188 -0.896905 0.25
    endloop
  endfacet
  facet normal 0 0 1
    outer loop
      vertex 0.1875 -0.0625 0.25
      vertex 0.098649 -0.890882 0.25
      vertex 0.108234 -0.892919 0.25
    endloop
  endfacet
  facet normal 0 0 1
    outer loop
      vertex 0.1875 -0.0625 0.25
      vertex 0.08885 -0.890882 0.25
      vertex 0.098649 -0.890882 0.25
    endloop
  endfacet
  facet normal -0 0 1
    outer loop
      vertex 0 -0.0625 0.25
      vertex 0.08885 -0.890882 0.25
      vertex 0.1875 -0.0625 0.25
    endloop
  endfacet
  facet normal 0 0 1
    outer loop
      vertex 0.08885 -0.890882 0.25
      vertex 0 -0.0625 0.25
      vertex 0.0792646 -0.892919 0.25
    endloop
  endfacet
  facet normal 0 0 1
    outer loop
      vertex 0.0792646 -0.892919 0.25
      vertex 0 -0.0625 0.25
      vertex 0.0703125 -0.896905 0.25
    endloop
  endfacet
  facet normal 0 0 1
    outer loop
      vertex 0.0703125 -0.896905 0.25
      vertex 0 -0.0625 0.25
      vertex 0.0623837 -0.902664 0.25
    endloop
  endfacet
  facet normal 0 0 1
    outer loop
      vertex 0.0623837 -0.902664 0.25
      vertex 0 -0.0625 0.25
      vertex 0.0558271 -0.909947 0.25
    endloop
  endfacet
  facet normal 0 0 1
    outer loop
      vertex 0.0558271 -0.909947 0.25
      vertex 0 -0.0625 0.25
      vertex 0.0509272 -0.918434 0.25
    endloop
  endfacet
  facet normal 0 0 1
    outer loop
      vertex 0 -1.0625 0.25
      vertex 0.0478992 -0.927753 0.25
      vertex 0 -0.0625 0.25
    endloop
  endfacet
  facet normal 0 0 1
    outer loop
      vertex 0.0509272 -0.918434 0.25
      vertex 0 -0.0625 0.25
      vertex 0.0478992 -0.927753 0.25
    endloop
  endfacet
  facet normal -0 0 1
    outer loop
      vertex 0.1396 -0.947246 0.25
      vertex 0.1875 -1.0625 0.25
      vertex 0.140625 -0.9375 0.25
    endloop
  endfacet
  facet normal -0 0 1
    outer loop
      vertex 0.136572 -0.956565 0.25
      vertex 0.1875 -1.0625 0.25
      vertex 0.1396 -0.947246 0.25
    endloop
  endfacet
  facet normal -0 0 1
    outer loop
      vertex 0.131672 -0.965052 0.25
      vertex 0.1875 -1.0625 0.25
      vertex 0.136572 -0.956565 0.25
    endloop
  endfacet
  facet normal -0 0 1
    outer loop
      vertex 0.125115 -0.972335 0.25
      vertex 0.1875 -1.0625 0.25
      vertex 0.131672 -0.965052 0.25
    endloop
  endfacet
  facet normal -0 0 1
    outer loop
      vertex 0.117188 -0.978094 0.25
      vertex 0.1875 -1.0625 0.25
      vertex 0.125115 -0.972335 0.25
    endloop
  endfacet
  facet normal -0 0 1
    outer loop
      vertex 0.108234 -0.98208 0.25
      vertex 0.1875 -1.0625 0.25
      vertex 0.117188 -0.978094 0.25
    endloop
  endfacet
  facet normal -0 0 1
    outer loop
      vertex 0.098649 -0.984118 0.25
      vertex 0.1875 -1.0625 0.25
      vertex 0.108234 -0.98208 0.25
    endloop
  endfacet
  facet normal -0 0 1
    outer loop
      vertex 0.08885 -0.984118 0.25
      vertex 0.1875 -1.0625 0.25
      vertex 0.098649 -0.984118 0.25
    endloop
  endfacet
  facet normal 0 0 1
    outer loop
      vertex 0 -1.0625 0.25
      vertex 0.08885 -0.984118 0.25
      vertex 0.0792646 -0.98208 0.25
    endloop
  endfacet
  facet normal 0 0 1
    outer loop
      vertex 0 -1.0625 0.25
      vertex 0.0792646 -0.98208 0.25
      vertex 0.0703115 -0.978094 0.25
    endloop
  endfacet
  facet normal 0 0 1
    outer loop
      vertex 0.08885 -0.984118 0.25
      vertex 0 -1.0625 0.25
      vertex 0.1875 -1.0625 0.25
    endloop
  endfacet
  facet normal 0 0 1
    outer loop
      vertex 0.0623837 -0.972335 0.25
      vertex 0 -1.0625 0.25
      vertex 0.0703115 -0.978094 0.25
    endloop
  endfacet
  facet normal 0 0 1
    outer loop
      vertex 0.0558271 -0.965052 0.25
      vertex 0 -1.0625 0.25
      vertex 0.0623837 -0.972335 0.25
    endloop
  endfacet
  facet normal 0 0 1
    outer loop
      vertex 0.0509272 -0.956565 0.25
      vertex 0 -1.0625 0.25
      vertex 0.0558271 -0.965052 0.25
    endloop
  endfacet
  facet normal 0 0 1
    outer loop
      vertex 0.0478992 -0.947246 0.25
      vertex 0 -1.0625 0.25
      vertex 0.0509272 -0.956565 0.25
    endloop
  endfacet
  facet normal 0 0 1
    outer loop
      vertex 0.046875 -0.9375 0.25
      vertex 0 -1.0625 0.25
      vertex 0.0478992 -0.947246 0.25
    endloop
  endfacet
  facet normal 0 0 1
    outer loop
      vertex 0.0478992 -0.927753 0.25
      vertex 0 -1.0625 0.25
      vertex 0.046875 -0.9375 0.25
    endloop
  endfacet
  facet normal 1 0 0
    outer loop
      vertex 0.1875 -0.0625 0.25
      vertex 0.1875 -0.25 0.1875
      vertex 0.1875 -0.0625 0.1875
    endloop
  endfacet
  facet normal 1 -0 0
    outer loop
      vertex 0.1875 -1.0625 0.25
      vertex 0.1875 -0.25 0.1875
      vertex 0.1875 -0.0625 0.25
    endloop
  endfacet
  facet normal 1 0 0
    outer loop
      vertex 0.1875 -0.25 0.1875
      vertex 0.1875 -1.0625 0.25
      vertex 0.1875 -1.0625 0.1875
    endloop
  endfacet
  facet normal 1 0 0
    outer loop
      vertex 0.1875 0.875 0.1875
      vertex 0.1875 -0.0625 0.1875
      vertex 0.1875 0.875 0.125
    endloop
  endfacet
  facet normal 1 -0 0
    outer loop
      vertex 0.1875 0.875 0.125
      vertex 0.1875 1.125 0
      vertex 0.1875 1.125 0.125
    endloop
  endfacet
  facet normal 1 0 0
    outer loop
      vertex 0.1875 -0.25 0
      vertex 0.1875 0.875 0.125
      vertex 0.1875 -0.0625 0.1875
    endloop
  endfacet
  facet normal 1 0 0
    outer loop
      vertex 0.1875 -0.25 0
      vertex 0.1875 -0.0625 0.1875
      vertex 0.1875 -0.25 0.1875
    endloop
  endfacet
  facet normal 1 0 0
    outer loop
      vertex 0.1875 0.875 0.125
      vertex 0.1875 -0.25 0
      vertex 0.1875 1.125 0
    endloop
  endfacet
  facet normal 0 0 -1
    outer loop
      vertex 0.1396 -0.927753 0.1875
      vertex 0.1875 -1.0625 0.1875
      vertex 0.140625 -0.9375 0.1875
    endloop
  endfacet
  facet normal 0 0 -1
    outer loop
      vertex 0.1875 -1.0625 0.1875
      vertex 0.1396 -0.947246 0.1875
      vertex 0.140625 -0.9375 0.1875
    endloop
  endfacet
  facet normal 0 0 -1
    outer loop
      vertex 0.1875 -1.0625 0.1875
      vertex 0.136572 -0.956565 0.1875
      vertex 0.1396 -0.947246 0.1875
    endloop
  endfacet
  facet normal 0 0 -1
    outer loop
      vertex 0.1875 -1.0625 0.1875
      vertex 0.131672 -0.965052 0.1875
      vertex 0.136572 -0.956565 0.1875
    endloop
  endfacet
  facet normal 0 0 -1
    outer loop
      vertex 0.1875 -1.0625 0.1875
      vertex 0.125115 -0.972335 0.1875
      vertex 0.131672 -0.965052 0.1875
    endloop
  endfacet
  facet normal 0 0 -1
    outer loop
      vertex 0.1875 -1.0625 0.1875
      vertex 0.117188 -0.978094 0.1875
      vertex 0.125115 -0.972335 0.1875
    endloop
  endfacet
  facet normal 0 0 -1
    outer loop
      vertex 0.1875 -1.0625 0.1875
      vertex 0.108234 -0.98208 0.1875
      vertex 0.117188 -0.978094 0.1875
    endloop
  endfacet
  facet normal 0 0 -1
    outer loop
      vertex 0.1875 -1.0625 0.1875
      vertex 0.098649 -0.984118 0.1875
      vertex 0.108234 -0.98208 0.1875
    endloop
  endfacet
  facet normal 0 0 -1
    outer loop
      vertex 0.1875 -1.0625 0.1875
      vertex 0.08885 -0.984118 0.1875
      vertex 0.098649 -0.984118 0.1875
    endloop
  endfacet
  facet normal 0 0 -1
    outer loop
      vertex 0 -1.0625 0.1875
      vertex 0.08885 -0.984118 0.1875
      vertex 0.1875 -1.0625 0.1875
    endloop
  endfacet
  facet normal -0 0 -1
    outer loop
      vertex 0.08885 -0.984118 0.1875
      vertex 0 -1.0625 0.1875
      vertex 0.0792646 -0.98208 0.1875
    endloop
  endfacet
  facet normal -0 0 -1
    outer loop
      vertex 0.0478992 -0.947246 0.1875
      vertex 0 -1.0625 0.1875
      vertex 0.046875 -0.9375 0.1875
    endloop
  endfacet
  facet normal -0 0 -1
    outer loop
      vertex 0.0509272 -0.956565 0.1875
      vertex 0 -1.0625 0.1875
      vertex 0.0478992 -0.947246 0.1875
    endloop
  endfacet
  facet normal -0 0 -1
    outer loop
      vertex 0.0558271 -0.965052 0.1875
      vertex 0 -1.0625 0.1875
      vertex 0.0509272 -0.956565 0.1875
    endloop
  endfacet
  facet normal -0 0 -1
    outer loop
      vertex 0.0623837 -0.972335 0.1875
      vertex 0 -1.0625 0.1875
      vertex 0.0558271 -0.965052 0.1875
    endloop
  endfacet
  facet normal -0 0 -1
    outer loop
      vertex 0.0703115 -0.978094 0.1875
      vertex 0 -1.0625 0.1875
      vertex 0.0623837 -0.972335 0.1875
    endloop
  endfacet
  facet normal -0 0 -1
    outer loop
      vertex 0.0792646 -0.98208 0.1875
      vertex 0 -1.0625 0.1875
      vertex 0.0703115 -0.978094 0.1875
    endloop
  endfacet
  facet normal 0 0 -1
    outer loop
      vertex 0.1875 -1.0625 0.1875
      vertex 0.1396 -0.927753 0.1875
      vertex 0.1875 -0.25 0.1875
    endloop
  endfacet
  facet normal 0 0 -1
    outer loop
      vertex 0.136572 -0.918434 0.1875
      vertex 0.1875 -0.25 0.1875
      vertex 0.1396 -0.927753 0.1875
    endloop
  endfacet
  facet normal 0 0 -1
    outer loop
      vertex 0.131672 -0.909947 0.1875
      vertex 0.1875 -0.25 0.1875
      vertex 0.136572 -0.918434 0.1875
    endloop
  endfacet
  facet normal 0 0 -1
    outer loop
      vertex 0.125115 -0.902664 0.1875
      vertex 0.1875 -0.25 0.1875
      vertex 0.131672 -0.909947 0.1875
    endloop
  endfacet
  facet normal 0 0 -1
    outer loop
      vertex 0.117188 -0.896905 0.1875
      vertex 0.1875 -0.25 0.1875
      vertex 0.125115 -0.902664 0.1875
    endloop
  endfacet
  facet normal 0 0 -1
    outer loop
      vertex 0.108234 -0.892919 0.1875
      vertex 0.1875 -0.25 0.1875
      vertex 0.117188 -0.896905 0.1875
    endloop
  endfacet
  facet normal 0 0 -1
    outer loop
      vertex 0.098649 -0.890882 0.1875
      vertex 0.1875 -0.25 0.1875
      vertex 0.108234 -0.892919 0.1875
    endloop
  endfacet
  facet normal 0 0 -1
    outer loop
      vertex 0.08885 -0.890882 0.1875
      vertex 0.1875 -0.25 0.1875
      vertex 0.098649 -0.890882 0.1875
    endloop
  endfacet
  facet normal 0 0 -1
    outer loop
      vertex 0 -0.25 0.1875
      vertex 0.08885 -0.890882 0.1875
      vertex 0.0792646 -0.892919 0.1875
    endloop
  endfacet
  facet normal 0 0 -1
    outer loop
      vertex 0 -0.25 0.1875
      vertex 0.0792646 -0.892919 0.1875
      vertex 0.0703125 -0.896905 0.1875
    endloop
  endfacet
  facet normal 0 0 -1
    outer loop
      vertex 0 -0.25 0.1875
      vertex 0.0703125 -0.896905 0.1875
      vertex 0.0623837 -0.902664 0.1875
    endloop
  endfacet
  facet normal 0 0 -1
    outer loop
      vertex 0 -0.25 0.1875
      vertex 0.0623837 -0.902664 0.1875
      vertex 0.0558271 -0.909947 0.1875
    endloop
  endfacet
  facet normal 0 0 -1
    outer loop
      vertex 0 -0.25 0.1875
      vertex 0.0558271 -0.909947 0.1875
      vertex 0.0509272 -0.918434 0.1875
    endloop
  endfacet
  facet normal 0 0 -1
    outer loop
      vertex 0 -0.25 0.1875
      vertex 0.0509272 -0.918434 0.1875
      vertex 0.0478992 -0.927753 0.1875
    endloop
  endfacet
  facet normal 0 0 -1
    outer loop
      vertex 0 -1.0625 0.1875
      vertex 0.0478992 -0.927753 0.1875
      vertex 0.046875 -0.9375 0.1875
    endloop
  endfacet
  facet normal 0 0 -1
    outer loop
      vertex 0 -0.25 0.1875
      vertex 0.0478992 -0.927753 0.1875
      vertex 0 -1.0625 0.1875
    endloop
  endfacet
  facet normal 0 0 -1
    outer loop
      vertex 0.08885 -0.890882 0.1875
      vertex 0 -0.25 0.1875
      vertex 0.1875 -0.25 0.1875
    endloop
  endfacet
  facet normal -0 0 1
    outer loop
      vertex 0.131958 0.101871 0.1875
      vertex 0.1875 -0.0625 0.1875
      vertex 0.1875 0.875 0.1875
    endloop
  endfacet
  facet normal 0 0 1
    outer loop
      vertex 0.1875 -0.0625 0.1875
      vertex 0.131958 0.101871 0.1875
      vertex 0.132812 0.09375 0.1875
    endloop
  endfacet
  facet normal 0 0 1
    outer loop
      vertex 0.1875 0.875 0.1875
      vertex 0.129435 0.109637 0.1875
      vertex 0.131958 0.101871 0.1875
    endloop
  endfacet
  facet normal 0 0 1
    outer loop
      vertex 0.1875 0.875 0.1875
      vertex 0.125352 0.11671 0.1875
      vertex 0.129435 0.109637 0.1875
    endloop
  endfacet
  facet normal 0 0 1
    outer loop
      vertex 0.1875 0.875 0.1875
      vertex 0.119887 0.122779 0.1875
      vertex 0.125352 0.11671 0.1875
    endloop
  endfacet
  facet normal 0 0 1
    outer loop
      vertex 0.1875 0.875 0.1875
      vertex 0.113281 0.127579 0.1875
      vertex 0.119887 0.122779 0.1875
    endloop
  endfacet
  facet normal 0 0 1
    outer loop
      vertex 0.1875 0.875 0.1875
      vertex 0.105821 0.1309 0.1875
      vertex 0.113281 0.127579 0.1875
    endloop
  endfacet
  facet normal 0 0 1
    outer loop
      vertex 0.1875 0.875 0.1875
      vertex 0.0978327 0.132598 0.1875
      vertex 0.105821 0.1309 0.1875
    endloop
  endfacet
  facet normal 0 0 1
    outer loop
      vertex 0.1875 0.875 0.1875
      vertex 0.0896664 0.132598 0.1875
      vertex 0.0978327 0.132598 0.1875
    endloop
  endfacet
  facet normal -0 0 1
    outer loop
      vertex 0 0.875 0.1875
      vertex 0.0896664 0.132598 0.1875
      vertex 0.1875 0.875 0.1875
    endloop
  endfacet
  facet normal 0 0 1
    outer loop
      vertex 0.0896664 0.132598 0.1875
      vertex 0 0.875 0.1875
      vertex 0.0816784 0.1309 0.1875
    endloop
  endfacet
  facet normal 0 0 1
    outer loop
      vertex 0.0816784 0.1309 0.1875
      vertex 0 0.875 0.1875
      vertex 0.0742188 0.127579 0.1875
    endloop
  endfacet
  facet normal 0 0 1
    outer loop
      vertex 0.0742188 0.127579 0.1875
      vertex 0 0.875 0.1875
      vertex 0.0676117 0.122779 0.1875
    endloop
  endfacet
  facet normal 0 0 1
    outer loop
      vertex 0.0676117 0.122779 0.1875
      vertex 0 0.875 0.1875
      vertex 0.0621471 0.11671 0.1875
    endloop
  endfacet
  facet normal 0 0 1
    outer loop
      vertex 0.0621471 0.11671 0.1875
      vertex 0 0.875 0.1875
      vertex 0.0580645 0.109637 0.1875
    endloop
  endfacet
  facet normal 0 0 1
    outer loop
      vertex 0 -0.0625 0.1875
      vertex 0.055541 0.101871 0.1875
      vertex 0 0.875 0.1875
    endloop
  endfacet
  facet normal 0 0 1
    outer loop
      vertex 0.0580645 0.109637 0.1875
      vertex 0 0.875 0.1875
      vertex 0.055541 0.101871 0.1875
    endloop
  endfacet
  facet normal -0 0 1
    outer loop
      vertex 0.131958 0.0856276 0.1875
      vertex 0.1875 -0.0625 0.1875
      vertex 0.132812 0.09375 0.1875
    endloop
  endfacet
  facet normal -0 0 1
    outer loop
      vertex 0.129435 0.0778618 0.1875
      vertex 0.1875 -0.0625 0.1875
      vertex 0.131958 0.0856276 0.1875
    endloop
  endfacet
  facet normal -0 0 1
    outer loop
      vertex 0.125352 0.0707893 0.1875
      vertex 0.1875 -0.0625 0.1875
      vertex 0.129435 0.0778618 0.1875
    endloop
  endfacet
  facet normal -0 0 1
    outer loop
      vertex 0.119887 0.0647202 0.1875
      vertex 0.1875 -0.0625 0.1875
      vertex 0.125352 0.0707893 0.1875
    endloop
  endfacet
  facet normal -0 0 1
    outer loop
      vertex 0.113281 0.0599203 0.1875
      vertex 0.1875 -0.0625 0.1875
      vertex 0.119887 0.0647202 0.1875
    endloop
  endfacet
  facet normal -0 0 1
    outer loop
      vertex 0.105821 0.0565987 0.1875
      vertex 0.1875 -0.0625 0.1875
      vertex 0.113281 0.0599203 0.1875
    endloop
  endfacet
  facet normal -0 0 1
    outer loop
      vertex 0.0978327 0.0549011 0.1875
      vertex 0.1875 -0.0625 0.1875
      vertex 0.105821 0.0565987 0.1875
    endloop
  endfacet
  facet normal -0 0 1
    outer loop
      vertex 0.0896664 0.0549011 0.1875
      vertex 0.1875 -0.0625 0.1875
      vertex 0.0978327 0.0549011 0.1875
    endloop
  endfacet
  facet normal 0 0 1
    outer loop
      vertex 0 -0.0625 0.1875
      vertex 0.0896664 0.0549011 0.1875
      vertex 0.0816784 0.0565987 0.1875
    endloop
  endfacet
  facet normal 0 0 1
    outer loop
      vertex 0 -0.0625 0.1875
      vertex 0.0816784 0.0565987 0.1875
      vertex 0.0742178 0.0599203 0.1875
    endloop
  endfacet
  facet normal 0 0 1
    outer loop
      vertex 0 -0.0625 0.1875
      vertex 0.0742178 0.0599203 0.1875
      vertex 0.0676117 0.0647202 0.1875
    endloop
  endfacet
  facet normal 0 0 1
    outer loop
      vertex 0.0896664 0.0549011 0.1875
      vertex 0 -0.0625 0.1875
      vertex 0.1875 -0.0625 0.1875
    endloop
  endfacet
  facet normal 0 0 1
    outer loop
      vertex 0.0621471 0.0707893 0.1875
      vertex 0 -0.0625 0.1875
      vertex 0.0676117 0.0647202 0.1875
    endloop
  endfacet
  facet normal 0 0 1
    outer loop
      vertex 0.0580645 0.0778618 0.1875
      vertex 0 -0.0625 0.1875
      vertex 0.0621471 0.0707893 0.1875
    endloop
  endfacet
  facet normal 0 0 1
    outer loop
      vertex 0.055541 0.0856276 0.1875
      vertex 0 -0.0625 0.1875
      vertex 0.0580645 0.0778618 0.1875
    endloop
  endfacet
  facet normal 0 0 1
    outer loop
      vertex 0.0546875 0.09375 0.1875
      vertex 0 -0.0625 0.1875
      vertex 0.055541 0.0856276 0.1875
    endloop
  endfacet
  facet normal 0 0 1
    outer loop
      vertex 0.055541 0.101871 0.1875
      vertex 0 -0.0625 0.1875
      vertex 0.0546875 0.09375 0.1875
    endloop
  endfacet
  facet normal 0 -1 0
    outer loop
      vertex 0 -1.0625 0.1875
      vertex 0.1875 -1.0625 0.25
      vertex 0 -1.0625 0.25
    endloop
  endfacet
  facet normal 0 -1 -0
    outer loop
      vertex 0.1875 -1.0625 0.25
      vertex 0 -1.0625 0.1875
      vertex 0.1875 -1.0625 0.1875
    endloop
  endfacet
  facet normal 0 1 -0
    outer loop
      vertex 0.1875 -0.0625 0.1875
      vertex 0 -0.0625 0.25
      vertex 0.1875 -0.0625 0.25
    endloop
  endfacet
  facet normal 0 1 0
    outer loop
      vertex 0 -0.0625 0.25
      vertex 0.1875 -0.0625 0.1875
      vertex 0 -0.0625 0.1875
    endloop
  endfacet
  facet normal -0.994513 -0.104609 0
    outer loop
      vertex 0.140625 -0.9375 0.1875
      vertex 0.1396 -0.927753 0.25
      vertex 0.1396 -0.927753 0.1875
    endloop
  endfacet
  facet normal -0.994513 -0.104609 0
    outer loop
      vertex 0.1396 -0.927753 0.25
      vertex 0.140625 -0.9375 0.1875
      vertex 0.140625 -0.9375 0.25
    endloop
  endfacet
  facet normal 0.994523 0.104523 0
    outer loop
      vertex 0.0478992 -0.947246 0.25
      vertex 0.046875 -0.9375 0.1875
      vertex 0.046875 -0.9375 0.25
    endloop
  endfacet
  facet normal 0.994523 0.104523 0
    outer loop
      vertex 0.046875 -0.9375 0.1875
      vertex 0.0478992 -0.947246 0.25
      vertex 0.0478992 -0.947246 0.1875
    endloop
  endfacet
  facet normal 0.207874 -0.978156 0
    outer loop
      vertex 0.0792646 -0.892919 0.1875
      vertex 0.08885 -0.890882 0.25
      vertex 0.0792646 -0.892919 0.25
    endloop
  endfacet
  facet normal 0.207874 -0.978156 0
    outer loop
      vertex 0.08885 -0.890882 0.25
      vertex 0.0792646 -0.892919 0.1875
      vertex 0.08885 -0.890882 0.1875
    endloop
  endfacet
  facet normal -0.207874 0.978156 0
    outer loop
      vertex 0.108234 -0.98208 0.1875
      vertex 0.098649 -0.984118 0.25
      vertex 0.108234 -0.98208 0.25
    endloop
  endfacet
  facet normal -0.207874 0.978156 0
    outer loop
      vertex 0.098649 -0.984118 0.25
      vertex 0.108234 -0.98208 0.1875
      vertex 0.098649 -0.984118 0.1875
    endloop
  endfacet
  facet normal -0.587738 -0.809052 0
    outer loop
      vertex 0.117188 -0.896905 0.1875
      vertex 0.125115 -0.902664 0.25
      vertex 0.117188 -0.896905 0.25
    endloop
  endfacet
  facet normal -0.587738 -0.809052 -0
    outer loop
      vertex 0.125115 -0.902664 0.25
      vertex 0.117188 -0.896905 0.1875
      vertex 0.125115 -0.902664 0.1875
    endloop
  endfacet
  facet normal 0.866019 -0.500012 0
    outer loop
      vertex 0.0509272 -0.918434 0.25
      vertex 0.0558271 -0.909947 0.1875
      vertex 0.0558271 -0.909947 0.25
    endloop
  endfacet
  facet normal 0.866019 -0.500012 0
    outer loop
      vertex 0.0558271 -0.909947 0.1875
      vertex 0.0509272 -0.918434 0.25
      vertex 0.0509272 -0.918434 0.1875
    endloop
  endfacet
  facet normal 0.95106 -0.309007 0
    outer loop
      vertex 0.0478992 -0.927753 0.25
      vertex 0.0509272 -0.918434 0.1875
      vertex 0.0509272 -0.918434 0.25
    endloop
  endfacet
  facet normal 0.95106 -0.309007 0
    outer loop
      vertex 0.0509272 -0.918434 0.1875
      vertex 0.0478992 -0.927753 0.25
      vertex 0.0478992 -0.927753 0.1875
    endloop
  endfacet
  facet normal 0.587691 -0.809085 0
    outer loop
      vertex 0.0623837 -0.902664 0.1875
      vertex 0.0703125 -0.896905 0.25
      vertex 0.0623837 -0.902664 0.25
    endloop
  endfacet
  facet normal 0.587691 -0.809085 0
    outer loop
      vertex 0.0703125 -0.896905 0.25
      vertex 0.0623837 -0.902664 0.1875
      vertex 0.0703125 -0.896905 0.1875
    endloop
  endfacet
  facet normal -0.866019 0.500012 0
    outer loop
      vertex 0.131672 -0.965052 0.1875
      vertex 0.136572 -0.956565 0.25
      vertex 0.136572 -0.956565 0.1875
    endloop
  endfacet
  facet normal -0.866019 0.500012 0
    outer loop
      vertex 0.136572 -0.956565 0.25
      vertex 0.131672 -0.965052 0.1875
      vertex 0.131672 -0.965052 0.25
    endloop
  endfacet
  facet normal -0.866019 -0.500012 0
    outer loop
      vertex 0.136572 -0.918434 0.1875
      vertex 0.131672 -0.909947 0.25
      vertex 0.131672 -0.909947 0.1875
    endloop
  endfacet
  facet normal -0.866019 -0.500012 0
    outer loop
      vertex 0.131672 -0.909947 0.25
      vertex 0.136572 -0.918434 0.1875
      vertex 0.136572 -0.918434 0.25
    endloop
  endfacet
  facet normal -0.95106 -0.309007 0
    outer loop
      vertex 0.1396 -0.927753 0.1875
      vertex 0.136572 -0.918434 0.25
      vertex 0.136572 -0.918434 0.1875
    endloop
  endfacet
  facet normal -0.95106 -0.309007 0
    outer loop
      vertex 0.136572 -0.918434 0.25
      vertex 0.1396 -0.927753 0.1875
      vertex 0.1396 -0.927753 0.25
    endloop
  endfacet
  facet normal -0.743212 -0.669056 0
    outer loop
      vertex 0.131672 -0.909947 0.1875
      vertex 0.125115 -0.902664 0.25
      vertex 0.125115 -0.902664 0.1875
    endloop
  endfacet
  facet normal -0.743212 -0.669056 0
    outer loop
      vertex 0.125115 -0.902664 0.25
      vertex 0.131672 -0.909947 0.1875
      vertex 0.131672 -0.909947 0.25
    endloop
  endfacet
  facet normal -0.207874 -0.978156 0
    outer loop
      vertex 0.098649 -0.890882 0.1875
      vertex 0.108234 -0.892919 0.25
      vertex 0.098649 -0.890882 0.25
    endloop
  endfacet
  facet normal -0.207874 -0.978156 -0
    outer loop
      vertex 0.108234 -0.892919 0.25
      vertex 0.098649 -0.890882 0.1875
      vertex 0.108234 -0.892919 0.1875
    endloop
  endfacet
  facet normal 0 -1 0
    outer loop
      vertex 0.08885 -0.890882 0.1875
      vertex 0.098649 -0.890882 0.25
      vertex 0.08885 -0.890882 0.25
    endloop
  endfacet
  facet normal 0 -1 -0
    outer loop
      vertex 0.098649 -0.890882 0.25
      vertex 0.08885 -0.890882 0.1875
      vertex 0.098649 -0.890882 0.1875
    endloop
  endfacet
  facet normal -0.406752 -0.913538 0
    outer loop
      vertex 0.108234 -0.892919 0.1875
      vertex 0.117188 -0.896905 0.25
      vertex 0.108234 -0.892919 0.25
    endloop
  endfacet
  facet normal -0.406752 -0.913538 -0
    outer loop
      vertex 0.117188 -0.896905 0.25
      vertex 0.108234 -0.892919 0.1875
      vertex 0.117188 -0.896905 0.1875
    endloop
  endfacet
  facet normal 0.994524 -0.104513 0
    outer loop
      vertex 0.046875 -0.9375 0.25
      vertex 0.0478992 -0.927753 0.1875
      vertex 0.0478992 -0.927753 0.25
    endloop
  endfacet
  facet normal 0.994524 -0.104513 0
    outer loop
      vertex 0.0478992 -0.927753 0.1875
      vertex 0.046875 -0.9375 0.25
      vertex 0.046875 -0.9375 0.1875
    endloop
  endfacet
  facet normal 0.743212 -0.669056 0
    outer loop
      vertex 0.0558271 -0.909947 0.25
      vertex 0.0623837 -0.902664 0.1875
      vertex 0.0623837 -0.902664 0.25
    endloop
  endfacet
  facet normal 0.743212 -0.669056 0
    outer loop
      vertex 0.0623837 -0.902664 0.1875
      vertex 0.0558271 -0.909947 0.25
      vertex 0.0558271 -0.909947 0.1875
    endloop
  endfacet
  facet normal 0.406788 -0.913522 0
    outer loop
      vertex 0.0703125 -0.896905 0.1875
      vertex 0.0792646 -0.892919 0.25
      vertex 0.0703125 -0.896905 0.25
    endloop
  endfacet
  facet normal 0.406788 -0.913522 0
    outer loop
      vertex 0.0792646 -0.892919 0.25
      vertex 0.0703125 -0.896905 0.1875
      vertex 0.0792646 -0.892919 0.1875
    endloop
  endfacet
  facet normal -0.95106 0.309007 0
    outer loop
      vertex 0.136572 -0.956565 0.1875
      vertex 0.1396 -0.947246 0.25
      vertex 0.1396 -0.947246 0.1875
    endloop
  endfacet
  facet normal -0.95106 0.309007 0
    outer loop
      vertex 0.1396 -0.947246 0.25
      vertex 0.136572 -0.956565 0.1875
      vertex 0.136572 -0.956565 0.25
    endloop
  endfacet
  facet normal 0.743212 0.669056 0
    outer loop
      vertex 0.0623837 -0.972335 0.25
      vertex 0.0558271 -0.965052 0.1875
      vertex 0.0558271 -0.965052 0.25
    endloop
  endfacet
  facet normal 0.743212 0.669056 0
    outer loop
      vertex 0.0558271 -0.965052 0.1875
      vertex 0.0623837 -0.972335 0.25
      vertex 0.0623837 -0.972335 0.1875
    endloop
  endfacet
  facet normal -0.406752 0.913538 0
    outer loop
      vertex 0.117188 -0.978094 0.1875
      vertex 0.108234 -0.98208 0.25
      vertex 0.117188 -0.978094 0.25
    endloop
  endfacet
  facet normal -0.406752 0.913538 0
    outer loop
      vertex 0.108234 -0.98208 0.25
      vertex 0.117188 -0.978094 0.1875
      vertex 0.108234 -0.98208 0.1875
    endloop
  endfacet
  facet normal -0.743212 0.669056 0
    outer loop
      vertex 0.125115 -0.972335 0.1875
      vertex 0.131672 -0.965052 0.25
      vertex 0.131672 -0.965052 0.1875
    endloop
  endfacet
  facet normal -0.743212 0.669056 0
    outer loop
      vertex 0.131672 -0.965052 0.25
      vertex 0.125115 -0.972335 0.1875
      vertex 0.125115 -0.972335 0.25
    endloop
  endfacet
  facet normal -0.994512 0.104619 0
    outer loop
      vertex 0.1396 -0.947246 0.1875
      vertex 0.140625 -0.9375 0.25
      vertex 0.140625 -0.9375 0.1875
    endloop
  endfacet
  facet normal -0.994512 0.104619 0
    outer loop
      vertex 0.140625 -0.9375 0.25
      vertex 0.1396 -0.947246 0.1875
      vertex 0.1396 -0.947246 0.25
    endloop
  endfacet
  facet normal 0 1 -0
    outer loop
      vertex 0.098649 -0.984118 0.1875
      vertex 0.08885 -0.984118 0.25
      vertex 0.098649 -0.984118 0.25
    endloop
  endfacet
  facet normal 0 1 0
    outer loop
      vertex 0.08885 -0.984118 0.25
      vertex 0.098649 -0.984118 0.1875
      vertex 0.08885 -0.984118 0.1875
    endloop
  endfacet
  facet normal 0.207874 0.978156 -0
    outer loop
      vertex 0.08885 -0.984118 0.1875
      vertex 0.0792646 -0.98208 0.25
      vertex 0.08885 -0.984118 0.25
    endloop
  endfacet
  facet normal 0.207874 0.978156 0
    outer loop
      vertex 0.0792646 -0.98208 0.25
      vertex 0.08885 -0.984118 0.1875
      vertex 0.0792646 -0.98208 0.1875
    endloop
  endfacet
  facet normal 0.587738 0.809052 -0
    outer loop
      vertex 0.0703115 -0.978094 0.1875
      vertex 0.0623837 -0.972335 0.25
      vertex 0.0703115 -0.978094 0.25
    endloop
  endfacet
  facet normal 0.587738 0.809052 0
    outer loop
      vertex 0.0623837 -0.972335 0.25
      vertex 0.0703115 -0.978094 0.1875
      vertex 0.0623837 -0.972335 0.1875
    endloop
  endfacet
  facet normal 0.866019 0.500012 0
    outer loop
      vertex 0.0558271 -0.965052 0.25
      vertex 0.0509272 -0.956565 0.1875
      vertex 0.0509272 -0.956565 0.25
    endloop
  endfacet
  facet normal 0.866019 0.500012 0
    outer loop
      vertex 0.0509272 -0.956565 0.1875
      vertex 0.0558271 -0.965052 0.25
      vertex 0.0558271 -0.965052 0.1875
    endloop
  endfacet
  facet normal 0.95106 0.309007 0
    outer loop
      vertex 0.0509272 -0.956565 0.25
      vertex 0.0478992 -0.947246 0.1875
      vertex 0.0478992 -0.947246 0.25
    endloop
  endfacet
  facet normal 0.95106 0.309007 0
    outer loop
      vertex 0.0478992 -0.947246 0.1875
      vertex 0.0509272 -0.956565 0.25
      vertex 0.0509272 -0.956565 0.1875
    endloop
  endfacet
  facet normal -0.587738 0.809052 0
    outer loop
      vertex 0.125115 -0.972335 0.1875
      vertex 0.117188 -0.978094 0.25
      vertex 0.125115 -0.972335 0.25
    endloop
  endfacet
  facet normal -0.587738 0.809052 0
    outer loop
      vertex 0.117188 -0.978094 0.25
      vertex 0.125115 -0.972335 0.1875
      vertex 0.117188 -0.978094 0.1875
    endloop
  endfacet
  facet normal 0.406752 0.913538 -0
    outer loop
      vertex 0.0792646 -0.98208 0.1875
      vertex 0.0703115 -0.978094 0.25
      vertex 0.0792646 -0.98208 0.25
    endloop
  endfacet
  facet normal 0.406752 0.913538 0
    outer loop
      vertex 0.0703115 -0.978094 0.25
      vertex 0.0792646 -0.98208 0.1875
      vertex 0.0703115 -0.978094 0.1875
    endloop
  endfacet
  facet normal 0 1 -0
    outer loop
      vertex 0.1875 0.875 0.125
      vertex 0 0.875 0.1875
      vertex 0.1875 0.875 0.1875
    endloop
  endfacet
  facet normal 0 1 0
    outer loop
      vertex 0 0.875 0.1875
      vertex 0.1875 0.875 0.125
      vertex 0 0.875 0.125
    endloop
  endfacet
  facet normal 0 0 -1
    outer loop
      vertex 0 -0.25 0
      vertex 0.1875 1.125 0
      vertex 0.1875 -0.25 0
    endloop
  endfacet
  facet normal -0 0 -1
    outer loop
      vertex 0.1875 1.125 0
      vertex 0 -0.25 0
      vertex 0 1.125 0
    endloop
  endfacet
  facet normal 0 -1 0
    outer loop
      vertex 0 -0.25 0
      vertex 0.1875 -0.25 0.1875
      vertex 0 -0.25 0.1875
    endloop
  endfacet
  facet normal 0 -1 -0
    outer loop
      vertex 0.1875 -0.25 0.1875
      vertex 0 -0.25 0
      vertex 0.1875 -0.25 0
    endloop
  endfacet
  facet normal -0 0 1
    outer loop
      vertex 0 1.125 0.125
      vertex 0.1875 0.875 0.125
      vertex 0.1875 1.125 0.125
    endloop
  endfacet
  facet normal 0 0 1
    outer loop
      vertex 0.1875 0.875 0.125
      vertex 0 1.125 0.125
      vertex 0 0.875 0.125
    endloop
  endfacet
  facet normal 0 1 -0
    outer loop
      vertex 0.1875 1.125 0
      vertex 0 1.125 0.125
      vertex 0.1875 1.125 0.125
    endloop
  endfacet
  facet normal 0 1 0
    outer loop
      vertex 0 1.125 0.125
      vertex 0.1875 1.125 0
      vertex 0 1.125 0
    endloop
  endfacet
  facet normal 0.994511 0.104636 0
    outer loop
      vertex 0.132812 0.09375 0.3125
      vertex 0.131958 0.101871 0.1875
      vertex 0.131958 0.101871 0.3125
    endloop
  endfacet
  facet normal 0.994511 0.104636 0
    outer loop
      vertex 0.131958 0.101871 0.1875
      vertex 0.132812 0.09375 0.3125
      vertex 0.132812 0.09375 0.1875
    endloop
  endfacet
  facet normal -0.20787 0.978156 0
    outer loop
      vertex 0.0896664 0.132598 0.1875
      vertex 0.0816784 0.1309 0.3125
      vertex 0.0896664 0.132598 0.3125
    endloop
  endfacet
  facet normal -0.20787 0.978156 0
    outer loop
      vertex 0.0816784 0.1309 0.3125
      vertex 0.0896664 0.132598 0.1875
      vertex 0.0816784 0.1309 0.1875
    endloop
  endfacet
  facet normal 0.406734 -0.913546 0
    outer loop
      vertex 0.105821 0.0565987 0.1875
      vertex 0.113281 0.0599203 0.3125
      vertex 0.105821 0.0565987 0.3125
    endloop
  endfacet
  facet normal 0.406734 -0.913546 0
    outer loop
      vertex 0.113281 0.0599203 0.3125
      vertex 0.105821 0.0565987 0.1875
      vertex 0.113281 0.0599203 0.1875
    endloop
  endfacet
  facet normal 0.587804 0.809004 -0
    outer loop
      vertex 0.119887 0.122779 0.1875
      vertex 0.113281 0.127579 0.3125
      vertex 0.119887 0.122779 0.3125
    endloop
  endfacet
  facet normal 0.587804 0.809004 0
    outer loop
      vertex 0.113281 0.127579 0.3125
      vertex 0.119887 0.122779 0.1875
      vertex 0.113281 0.127579 0.1875
    endloop
  endfacet
  facet normal -0.743155 0.66912 0
    outer loop
      vertex 0.0621471 0.11671 0.1875
      vertex 0.0676117 0.122779 0.3125
      vertex 0.0676117 0.122779 0.1875
    endloop
  endfacet
  facet normal -0.743155 0.66912 0
    outer loop
      vertex 0.0676117 0.122779 0.3125
      vertex 0.0621471 0.11671 0.1875
      vertex 0.0621471 0.11671 0.3125
    endloop
  endfacet
  facet normal -0.587748 0.809044 0
    outer loop
      vertex 0.0742188 0.127579 0.1875
      vertex 0.0676117 0.122779 0.3125
      vertex 0.0742188 0.127579 0.3125
    endloop
  endfacet
  facet normal -0.587748 0.809044 0
    outer loop
      vertex 0.0676117 0.122779 0.3125
      vertex 0.0742188 0.127579 0.1875
      vertex 0.0676117 0.122779 0.1875
    endloop
  endfacet
  facet normal 0.866057 0.499945 0
    outer loop
      vertex 0.129435 0.109637 0.3125
      vertex 0.125352 0.11671 0.1875
      vertex 0.125352 0.11671 0.3125
    endloop
  endfacet
  facet normal 0.866057 0.499945 0
    outer loop
      vertex 0.125352 0.11671 0.1875
      vertex 0.129435 0.109637 0.3125
      vertex 0.129435 0.109637 0.1875
    endloop
  endfacet
  facet normal 0.95105 0.309036 0
    outer loop
      vertex 0.131958 0.101871 0.3125
      vertex 0.129435 0.109637 0.1875
      vertex 0.129435 0.109637 0.3125
    endloop
  endfacet
  facet normal 0.95105 0.309036 0
    outer loop
      vertex 0.129435 0.109637 0.1875
      vertex 0.131958 0.101871 0.3125
      vertex 0.131958 0.101871 0.1875
    endloop
  endfacet
  facet normal 0.743155 0.66912 0
    outer loop
      vertex 0.125352 0.11671 0.3125
      vertex 0.119887 0.122779 0.1875
      vertex 0.119887 0.122779 0.3125
    endloop
  endfacet
  facet normal 0.743155 0.66912 0
    outer loop
      vertex 0.119887 0.122779 0.1875
      vertex 0.125352 0.11671 0.3125
      vertex 0.125352 0.11671 0.1875
    endloop
  endfacet
  facet normal 0.20787 0.978156 -0
    outer loop
      vertex 0.105821 0.1309 0.1875
      vertex 0.0978327 0.132598 0.3125
      vertex 0.105821 0.1309 0.3125
    endloop
  endfacet
  facet normal 0.20787 0.978156 0
    outer loop
      vertex 0.0978327 0.132598 0.3125
      vertex 0.105821 0.1309 0.1875
      vertex 0.0978327 0.132598 0.1875
    endloop
  endfacet
  facet normal 0 1 -0
    outer loop
      vertex 0.0978327 0.132598 0.1875
      vertex 0.0896664 0.132598 0.3125
      vertex 0.0978327 0.132598 0.3125
    endloop
  endfacet
  facet normal 0 1 0
    outer loop
      vertex 0.0896664 0.132598 0.3125
      vertex 0.0978327 0.132598 0.1875
      vertex 0.0896664 0.132598 0.1875
    endloop
  endfacet
  facet normal 0.406734 0.913546 -0
    outer loop
      vertex 0.113281 0.127579 0.1875
      vertex 0.105821 0.1309 0.3125
      vertex 0.113281 0.127579 0.3125
    endloop
  endfacet
  facet normal 0.406734 0.913546 0
    outer loop
      vertex 0.105821 0.1309 0.3125
      vertex 0.113281 0.127579 0.1875
      vertex 0.105821 0.1309 0.1875
    endloop
  endfacet
  facet normal -0.95105 0.309036 0
    outer loop
      vertex 0.055541 0.101871 0.1875
      vertex 0.0580645 0.109637 0.3125
      vertex 0.0580645 0.109637 0.1875
    endloop
  endfacet
  facet normal -0.95105 0.309036 0
    outer loop
      vertex 0.0580645 0.109637 0.3125
      vertex 0.055541 0.101871 0.1875
      vertex 0.055541 0.101871 0.3125
    endloop
  endfacet
  facet normal -0.866057 0.499945 0
    outer loop
      vertex 0.0580645 0.109637 0.1875
      vertex 0.0621471 0.11671 0.3125
      vertex 0.0621471 0.11671 0.1875
    endloop
  endfacet
  facet normal -0.866057 0.499945 0
    outer loop
      vertex 0.0621471 0.11671 0.3125
      vertex 0.0580645 0.109637 0.1875
      vertex 0.0580645 0.109637 0.3125
    endloop
  endfacet
  facet normal -0.994523 0.104521 0
    outer loop
      vertex 0.0546875 0.09375 0.1875
      vertex 0.055541 0.101871 0.3125
      vertex 0.055541 0.101871 0.1875
    endloop
  endfacet
  facet normal -0.994523 0.104521 0
    outer loop
      vertex 0.055541 0.101871 0.3125
      vertex 0.0546875 0.09375 0.1875
      vertex 0.0546875 0.09375 0.3125
    endloop
  endfacet
  facet normal 0 0 1
    outer loop
      vertex 0.131958 0.101871 0.3125
      vertex 0.131958 0.0856276 0.3125
      vertex 0.132812 0.09375 0.3125
    endloop
  endfacet
  facet normal 0 0 1
    outer loop
      vertex 0.129435 0.109637 0.3125
      vertex 0.131958 0.0856276 0.3125
      vertex 0.131958 0.101871 0.3125
    endloop
  endfacet
  facet normal 0 0 1
    outer loop
      vertex 0.129435 0.109637 0.3125
      vertex 0.129435 0.0778618 0.3125
      vertex 0.131958 0.0856276 0.3125
    endloop
  endfacet
  facet normal 0 0 1
    outer loop
      vertex 0.125352 0.11671 0.3125
      vertex 0.129435 0.0778618 0.3125
      vertex 0.129435 0.109637 0.3125
    endloop
  endfacet
  facet normal 0 0 1
    outer loop
      vertex 0.125352 0.11671 0.3125
      vertex 0.125352 0.0707893 0.3125
      vertex 0.129435 0.0778618 0.3125
    endloop
  endfacet
  facet normal 0 0 1
    outer loop
      vertex 0.119887 0.122779 0.3125
      vertex 0.125352 0.0707893 0.3125
      vertex 0.125352 0.11671 0.3125
    endloop
  endfacet
  facet normal 0 0 1
    outer loop
      vertex 0.119887 0.122779 0.3125
      vertex 0.119887 0.0647202 0.3125
      vertex 0.125352 0.0707893 0.3125
    endloop
  endfacet
  facet normal 0 0 1
    outer loop
      vertex 0.113281 0.127579 0.3125
      vertex 0.119887 0.0647202 0.3125
      vertex 0.119887 0.122779 0.3125
    endloop
  endfacet
  facet normal 0 0 1
    outer loop
      vertex 0.113281 0.127579 0.3125
      vertex 0.113281 0.0599203 0.3125
      vertex 0.119887 0.0647202 0.3125
    endloop
  endfacet
  facet normal 0 0 1
    outer loop
      vertex 0.105821 0.1309 0.3125
      vertex 0.113281 0.0599203 0.3125
      vertex 0.113281 0.127579 0.3125
    endloop
  endfacet
  facet normal 0 0 1
    outer loop
      vertex 0.105821 0.1309 0.3125
      vertex 0.105821 0.0565987 0.3125
      vertex 0.113281 0.0599203 0.3125
    endloop
  endfacet
  facet normal 0 0 1
    outer loop
      vertex 0.0978327 0.132598 0.3125
      vertex 0.105821 0.0565987 0.3125
      vertex 0.105821 0.1309 0.3125
    endloop
  endfacet
  facet normal 0 0 1
    outer loop
      vertex 0.0978327 0.132598 0.3125
      vertex 0.0978327 0.0549011 0.3125
      vertex 0.105821 0.0565987 0.3125
    endloop
  endfacet
  facet normal -0 0 1
    outer loop
      vertex 0.0896664 0.132598 0.3125
      vertex 0.0978327 0.0549011 0.3125
      vertex 0.0978327 0.132598 0.3125
    endloop
  endfacet
  facet normal 0 0 1
    outer loop
      vertex 0.0896664 0.132598 0.3125
      vertex 0.0896664 0.0549011 0.3125
      vertex 0.0978327 0.0549011 0.3125
    endloop
  endfacet
  facet normal -0 0 1
    outer loop
      vertex 0.0816784 0.1309 0.3125
      vertex 0.0896664 0.0549011 0.3125
      vertex 0.0896664 0.132598 0.3125
    endloop
  endfacet
  facet normal 0 0 1
    outer loop
      vertex 0.0816784 0.1309 0.3125
      vertex 0.0816784 0.0565987 0.3125
      vertex 0.0896664 0.0549011 0.3125
    endloop
  endfacet
  facet normal -0 0 1
    outer loop
      vertex 0.0742188 0.127579 0.3125
      vertex 0.0816784 0.0565987 0.3125
      vertex 0.0816784 0.1309 0.3125
    endloop
  endfacet
  facet normal 0 0 1
    outer loop
      vertex 0.0742188 0.127579 0.3125
      vertex 0.0742178 0.0599203 0.3125
      vertex 0.0816784 0.0565987 0.3125
    endloop
  endfacet
  facet normal -0 0 1
    outer loop
      vertex 0.0676117 0.122779 0.3125
      vertex 0.0742178 0.0599203 0.3125
      vertex 0.0742188 0.127579 0.3125
    endloop
  endfacet
  facet normal 0 0 1
    outer loop
      vertex 0.0676117 0.122779 0.3125
      vertex 0.0676117 0.0647202 0.3125
      vertex 0.0742178 0.0599203 0.3125
    endloop
  endfacet
  facet normal -0 0 1
    outer loop
      vertex 0.0621471 0.11671 0.3125
      vertex 0.0676117 0.0647202 0.3125
      vertex 0.0676117 0.122779 0.3125
    endloop
  endfacet
  facet normal 0 0 1
    outer loop
      vertex 0.0621471 0.11671 0.3125
      vertex 0.0621471 0.0707893 0.3125
      vertex 0.0676117 0.0647202 0.3125
    endloop
  endfacet
  facet normal -0 0 1
    outer loop
      vertex 0.0580645 0.109637 0.3125
      vertex 0.0621471 0.0707893 0.3125
      vertex 0.0621471 0.11671 0.3125
    endloop
  endfacet
  facet normal 0 0 1
    outer loop
      vertex 0.0580645 0.109637 0.3125
      vertex 0.0580645 0.0778618 0.3125
      vertex 0.0621471 0.0707893 0.3125
    endloop
  endfacet
  facet normal -0 0 1
    outer loop
      vertex 0.055541 0.101871 0.3125
      vertex 0.0580645 0.0778618 0.3125
      vertex 0.0580645 0.109637 0.3125
    endloop
  endfacet
  facet normal 0 0 1
    outer loop
      vertex 0.055541 0.101871 0.3125
      vertex 0.055541 0.0856276 0.3125
      vertex 0.0580645 0.0778618 0.3125
    endloop
  endfacet
  facet normal 0 -0 1
    outer loop
      vertex 0.055541 0.0856276 0.3125
      vertex 0.055541 0.101871 0.3125
      vertex 0.0546875 0.09375 0.3125
    endloop
  endfacet
  facet normal -0.406778 0.913527 0
    outer loop
      vertex 0.0816784 0.1309 0.1875
      vertex 0.0742188 0.127579 0.3125
      vertex 0.0816784 0.1309 0.3125
    endloop
  endfacet
  facet normal -0.406778 0.913527 0
    outer loop
      vertex 0.0742188 0.127579 0.3125
      vertex 0.0816784 0.1309 0.1875
      vertex 0.0742188 0.127579 0.1875
    endloop
  endfacet
  facet normal 0.994512 -0.104624 0
    outer loop
      vertex 0.131958 0.0856276 0.3125
      vertex 0.132812 0.09375 0.1875
      vertex 0.132812 0.09375 0.3125
    endloop
  endfacet
  facet normal 0.994512 -0.104624 0
    outer loop
      vertex 0.132812 0.09375 0.1875
      vertex 0.131958 0.0856276 0.3125
      vertex 0.131958 0.0856276 0.1875
    endloop
  endfacet
  facet normal 0.866057 -0.499945 0
    outer loop
      vertex 0.125352 0.0707893 0.3125
      vertex 0.129435 0.0778618 0.1875
      vertex 0.129435 0.0778618 0.3125
    endloop
  endfacet
  facet normal 0.866057 -0.499945 0
    outer loop
      vertex 0.129435 0.0778618 0.1875
      vertex 0.125352 0.0707893 0.3125
      vertex 0.125352 0.0707893 0.1875
    endloop
  endfacet
  facet normal 0 -1 0
    outer loop
      vertex 0.0896664 0.0549011 0.1875
      vertex 0.0978327 0.0549011 0.3125
      vertex 0.0896664 0.0549011 0.3125
    endloop
  endfacet
  facet normal 0 -1 -0
    outer loop
      vertex 0.0978327 0.0549011 0.3125
      vertex 0.0896664 0.0549011 0.1875
      vertex 0.0978327 0.0549011 0.1875
    endloop
  endfacet
  facet normal -0.994524 -0.104509 0
    outer loop
      vertex 0.055541 0.0856276 0.1875
      vertex 0.0546875 0.09375 0.3125
      vertex 0.0546875 0.09375 0.1875
    endloop
  endfacet
  facet normal -0.994524 -0.104509 0
    outer loop
      vertex 0.0546875 0.09375 0.3125
      vertex 0.055541 0.0856276 0.1875
      vertex 0.055541 0.0856276 0.3125
    endloop
  endfacet
  facet normal 0.587804 -0.809004 0
    outer loop
      vertex 0.113281 0.0599203 0.1875
      vertex 0.119887 0.0647202 0.3125
      vertex 0.113281 0.0599203 0.3125
    endloop
  endfacet
  facet normal 0.587804 -0.809004 0
    outer loop
      vertex 0.119887 0.0647202 0.3125
      vertex 0.113281 0.0599203 0.1875
      vertex 0.119887 0.0647202 0.1875
    endloop
  endfacet
  facet normal -0.743155 -0.66912 0
    outer loop
      vertex 0.0676117 0.0647202 0.1875
      vertex 0.0621471 0.0707893 0.3125
      vertex 0.0621471 0.0707893 0.1875
    endloop
  endfacet
  facet normal -0.743155 -0.66912 0
    outer loop
      vertex 0.0621471 0.0707893 0.3125
      vertex 0.0676117 0.0647202 0.1875
      vertex 0.0676117 0.0647202 0.3125
    endloop
  endfacet
  facet normal -0.95105 -0.309036 0
    outer loop
      vertex 0.0580645 0.0778618 0.1875
      vertex 0.055541 0.0856276 0.3125
      vertex 0.055541 0.0856276 0.1875
    endloop
  endfacet
  facet normal -0.95105 -0.309036 0
    outer loop
      vertex 0.055541 0.0856276 0.3125
      vertex 0.0580645 0.0778618 0.1875
      vertex 0.0580645 0.0778618 0.3125
    endloop
  endfacet
  facet normal -0.866057 -0.499945 0
    outer loop
      vertex 0.0621471 0.0707893 0.1875
      vertex 0.0580645 0.0778618 0.3125
      vertex 0.0580645 0.0778618 0.1875
    endloop
  endfacet
  facet normal -0.866057 -0.499945 0
    outer loop
      vertex 0.0580645 0.0778618 0.3125
      vertex 0.0621471 0.0707893 0.1875
      vertex 0.0621471 0.0707893 0.3125
    endloop
  endfacet
  facet normal 0.743155 -0.66912 0
    outer loop
      vertex 0.119887 0.0647202 0.3125
      vertex 0.125352 0.0707893 0.1875
      vertex 0.125352 0.0707893 0.3125
    endloop
  endfacet
  facet normal 0.743155 -0.66912 0
    outer loop
      vertex 0.125352 0.0707893 0.1875
      vertex 0.119887 0.0647202 0.3125
      vertex 0.119887 0.0647202 0.1875
    endloop
  endfacet
  facet normal 0.95105 -0.309036 0
    outer loop
      vertex 0.129435 0.0778618 0.3125
      vertex 0.131958 0.0856276 0.1875
      vertex 0.131958 0.0856276 0.3125
    endloop
  endfacet
  facet normal 0.95105 -0.309036 0
    outer loop
      vertex 0.131958 0.0856276 0.1875
      vertex 0.129435 0.0778618 0.3125
      vertex 0.129435 0.0778618 0.1875
    endloop
  endfacet
  facet normal 0.20787 -0.978156 0
    outer loop
      vertex 0.0978327 0.0549011 0.1875
      vertex 0.105821 0.0565987 0.3125
      vertex 0.0978327 0.0549011 0.3125
    endloop
  endfacet
  facet normal 0.20787 -0.978156 0
    outer loop
      vertex 0.105821 0.0565987 0.3125
      vertex 0.0978327 0.0549011 0.1875
      vertex 0.105821 0.0565987 0.1875
    endloop
  endfacet
  facet normal -0.406734 -0.913546 0
    outer loop
      vertex 0.0742178 0.0599203 0.1875
      vertex 0.0816784 0.0565987 0.3125
      vertex 0.0742178 0.0599203 0.3125
    endloop
  endfacet
  facet normal -0.406734 -0.913546 -0
    outer loop
      vertex 0.0816784 0.0565987 0.3125
      vertex 0.0742178 0.0599203 0.1875
      vertex 0.0816784 0.0565987 0.1875
    endloop
  endfacet
  facet normal -0.20787 -0.978156 0
    outer loop
      vertex 0.0816784 0.0565987 0.1875
      vertex 0.0896664 0.0549011 0.3125
      vertex 0.0816784 0.0565987 0.3125
    endloop
  endfacet
  facet normal -0.20787 -0.978156 -0
    outer loop
      vertex 0.0896664 0.0549011 0.3125
      vertex 0.0816784 0.0565987 0.1875
      vertex 0.0896664 0.0549011 0.1875
    endloop
  endfacet
  facet normal -0.587804 -0.809004 0
    outer loop
      vertex 0.0676117 0.0647202 0.1875
      vertex 0.0742178 0.0599203 0.3125
      vertex 0.0676117 0.0647202 0.3125
    endloop
  endfacet
  facet normal -0.587804 -0.809004 -0
    outer loop
      vertex 0.0742178 0.0599203 0.3125
      vertex 0.0676117 0.0647202 0.1875
      vertex 0.0742178 0.0599203 0.1875
    endloop
  endfacet
endsolid OpenSCAD_Model
