solid OpenSCAD_Model
  facet normal -2.22045e-16 -1 0
    outer loop
      vertex -1.249e-16 1.249e-16 1.125
      vertex 0.5625 0 0.799999
      vertex 1.125 -1.249e-16 1.125
    endloop
  endfacet
  facet normal -2.22045e-16 -1 0
    outer loop
      vertex -1.249e-16 1.249e-16 1.125
      vertex 0.479336 1.84662e-17 0.782517
      vertex 0.5625 0 0.799999
    endloop
  endfacet
  facet normal -2.22045e-16 -1 0
    outer loop
      vertex -1.249e-16 1.249e-16 1.125
      vertex 0.399806 3.61253e-17 0.730836
      vertex 0.479336 1.84662e-17 0.782517
    endloop
  endfacet
  facet normal -2.22045e-16 -1 -9.94375e-32
    outer loop
      vertex -1.249e-16 1.249e-16 1.125
      vertex 0.327386 5.22058e-17 0.647213
      vertex 0.399806 3.61253e-17 0.730836
    endloop
  endfacet
  facet normal -2.22045e-16 -1 -4.64579e-32
    outer loop
      vertex -1.249e-16 1.249e-16 1.125
      vertex 0.265243 6.60044e-17 0.535304
      vertex 0.327386 5.22058e-17 0.647213
    endloop
  endfacet
  facet normal -2.22045e-16 -1 -2.375e-32
    outer loop
      vertex -1.249e-16 1.249e-16 1.125
      vertex 0.21609 7.69184e-17 0.4
      vertex 0.265243 6.60044e-17 0.535304
    endloop
  endfacet
  facet normal -2.22045e-16 -1 0
    outer loop
      vertex -1.249e-16 1.249e-16 0
      vertex 0.21609 7.69184e-17 0.4
      vertex -1.249e-16 1.249e-16 1.125
    endloop
  endfacet
  facet normal -2.22045e-16 -1 -3.96884e-32
    outer loop
      vertex 0.21609 7.69184e-17 0.4
      vertex -1.249e-16 1.249e-16 0
      vertex 0.182077 8.44708e-17 0.247213
    endloop
  endfacet
  facet normal -2.22045e-16 -1 -1.51122e-32
    outer loop
      vertex 0.182077 8.44708e-17 0.247213
      vertex -1.249e-16 1.249e-16 0
      vertex 0.164692 8.83311e-17 0.083622
    endloop
  endfacet
  facet normal -2.22045e-16 -1 -0
    outer loop
      vertex 0.164692 8.83311e-17 0.083622
      vertex -1.249e-16 1.249e-16 0
      vertex 0.164692 8.83311e-17 0
    endloop
  endfacet
  facet normal -2.22045e-16 -1 0
    outer loop
      vertex 0.645664 -1.84662e-17 0.782517
      vertex 1.125 -1.249e-16 1.125
      vertex 0.5625 0 0.799999
    endloop
  endfacet
  facet normal -2.22045e-16 -1 0
    outer loop
      vertex 0.725194 -3.61253e-17 0.730836
      vertex 1.125 -1.249e-16 1.125
      vertex 0.645664 -1.84662e-17 0.782517
    endloop
  endfacet
  facet normal -2.22045e-16 -1 0
    outer loop
      vertex 0.797614 -5.22058e-17 0.647213
      vertex 1.125 -1.249e-16 1.125
      vertex 0.725194 -3.61253e-17 0.730836
    endloop
  endfacet
  facet normal -2.22045e-16 -1 0
    outer loop
      vertex 0.859757 -6.60044e-17 0.535304
      vertex 1.125 -1.249e-16 1.125
      vertex 0.797614 -5.22058e-17 0.647213
    endloop
  endfacet
  facet normal -2.22045e-16 -1 0
    outer loop
      vertex 0.90891 -7.69184e-17 0.4
      vertex 1.125 -1.249e-16 1.125
      vertex 0.859757 -6.60044e-17 0.535304
    endloop
  endfacet
  facet normal -2.22045e-16 -1 0
    outer loop
      vertex 1.125 -1.249e-16 0
      vertex 0.90891 -7.69184e-17 0.4
      vertex 0.942923 -8.44708e-17 0.247213
    endloop
  endfacet
  facet normal -2.22045e-16 -1 0
    outer loop
      vertex 1.125 -1.249e-16 0
      vertex 0.942923 -8.44708e-17 0.247213
      vertex 0.960308 -8.83311e-17 0.083622
    endloop
  endfacet
  facet normal -2.22045e-16 -1 0
    outer loop
      vertex 1.125 -1.249e-16 0
      vertex 0.960308 -8.83311e-17 0.083622
      vertex 0.960308 -8.83311e-17 0
    endloop
  endfacet
  facet normal -2.22045e-16 -1 0
    outer loop
      vertex 0.90891 -7.69184e-17 0.4
      vertex 1.125 -1.249e-16 0
      vertex 1.125 -1.249e-16 1.125
    endloop
  endfacet
  facet normal 0 0 1
    outer loop
      vertex 1.125 1.125 1.125
      vertex 1.0275 1.0275 1.125
      vertex 1.125 -1.249e-16 1.125
    endloop
  endfacet
  facet normal 0 0 1
    outer loop
      vertex 1.125 1.125 1.125
      vertex 0.0975008 1.0275 1.125
      vertex 1.0275 1.0275 1.125
    endloop
  endfacet
  facet normal 0 0 1
    outer loop
      vertex 0.0975008 1.0275 1.125
      vertex 1.249e-16 1.125 1.125
      vertex 0.0975008 0.0975008 1.125
    endloop
  endfacet
  facet normal -0 0 1
    outer loop
      vertex 1.249e-16 1.125 1.125
      vertex 0.0975008 1.0275 1.125
      vertex 1.125 1.125 1.125
    endloop
  endfacet
  facet normal -0 0 1
    outer loop
      vertex 1.0275 0.0975008 1.125
      vertex 1.125 -1.249e-16 1.125
      vertex 1.0275 1.0275 1.125
    endloop
  endfacet
  facet normal -0 0 1
    outer loop
      vertex 0.0975008 0.0975008 1.125
      vertex 1.125 -1.249e-16 1.125
      vertex 1.0275 0.0975008 1.125
    endloop
  endfacet
  facet normal 0 0 1
    outer loop
      vertex 0.0975008 0.0975008 1.125
      vertex -1.249e-16 1.249e-16 1.125
      vertex 1.125 -1.249e-16 1.125
    endloop
  endfacet
  facet normal 0 0 1
    outer loop
      vertex -1.249e-16 1.249e-16 1.125
      vertex 0.0975008 0.0975008 1.125
      vertex 1.249e-16 1.125 1.125
    endloop
  endfacet
  facet normal 0 1 0
    outer loop
      vertex 1.125 1.125 1.125
      vertex 0.5625 1.125 0.799999
      vertex 1.249e-16 1.125 1.125
    endloop
  endfacet
  facet normal 0 1 0
    outer loop
      vertex 1.125 1.125 1.125
      vertex 0.645664 1.125 0.782517
      vertex 0.5625 1.125 0.799999
    endloop
  endfacet
  facet normal 0 1 0
    outer loop
      vertex 1.125 1.125 1.125
      vertex 0.725194 1.125 0.730836
      vertex 0.645664 1.125 0.782517
    endloop
  endfacet
  facet normal 0 1 0
    outer loop
      vertex 1.125 1.125 1.125
      vertex 0.797614 1.125 0.647213
      vertex 0.725194 1.125 0.730836
    endloop
  endfacet
  facet normal 0 1 0
    outer loop
      vertex 1.125 1.125 1.125
      vertex 0.859757 1.125 0.535304
      vertex 0.797614 1.125 0.647213
    endloop
  endfacet
  facet normal 0 1 0
    outer loop
      vertex 1.125 1.125 1.125
      vertex 0.90891 1.125 0.4
      vertex 0.859757 1.125 0.535304
    endloop
  endfacet
  facet normal 0 1 -0
    outer loop
      vertex 1.125 1.125 0
      vertex 0.90891 1.125 0.4
      vertex 1.125 1.125 1.125
    endloop
  endfacet
  facet normal 0 1 0
    outer loop
      vertex 0.90891 1.125 0.4
      vertex 1.125 1.125 0
      vertex 0.942923 1.125 0.247213
    endloop
  endfacet
  facet normal 0 1 0
    outer loop
      vertex 0.942923 1.125 0.247213
      vertex 1.125 1.125 0
      vertex 0.960308 1.125 0.083622
    endloop
  endfacet
  facet normal 0 1 0
    outer loop
      vertex 0.960308 1.125 0.083622
      vertex 1.125 1.125 0
      vertex 0.960308 1.125 0
    endloop
  endfacet
  facet normal 0 1 -0
    outer loop
      vertex 0.479336 1.125 0.782517
      vertex 1.249e-16 1.125 1.125
      vertex 0.5625 1.125 0.799999
    endloop
  endfacet
  facet normal 0 1 -0
    outer loop
      vertex 0.399806 1.125 0.730836
      vertex 1.249e-16 1.125 1.125
      vertex 0.479336 1.125 0.782517
    endloop
  endfacet
  facet normal 0 1 -0
    outer loop
      vertex 0.327386 1.125 0.647213
      vertex 1.249e-16 1.125 1.125
      vertex 0.399806 1.125 0.730836
    endloop
  endfacet
  facet normal 0 1 -0
    outer loop
      vertex 0.265243 1.125 0.535304
      vertex 1.249e-16 1.125 1.125
      vertex 0.327386 1.125 0.647213
    endloop
  endfacet
  facet normal 0 1 -0
    outer loop
      vertex 0.21609 1.125 0.4
      vertex 1.249e-16 1.125 1.125
      vertex 0.265243 1.125 0.535304
    endloop
  endfacet
  facet normal 0 1 0
    outer loop
      vertex 1.249e-16 1.125 0
      vertex 0.21609 1.125 0.4
      vertex 0.182077 1.125 0.247213
    endloop
  endfacet
  facet normal 0 1 0
    outer loop
      vertex 1.249e-16 1.125 0
      vertex 0.182077 1.125 0.247213
      vertex 0.164692 1.125 0.083622
    endloop
  endfacet
  facet normal 0 1 0
    outer loop
      vertex 1.249e-16 1.125 0
      vertex 0.164692 1.125 0.083622
      vertex 0.164692 1.125 0
    endloop
  endfacet
  facet normal 0 1 0
    outer loop
      vertex 0.21609 1.125 0.4
      vertex 1.249e-16 1.125 0
      vertex 1.249e-16 1.125 1.125
    endloop
  endfacet
  facet normal 0 0 -1
    outer loop
      vertex 1.125 -1.249e-16 0
      vertex 1.0275 0.0975008 0
      vertex 1.125 0.164692 0
    endloop
  endfacet
  facet normal 0 0 -1
    outer loop
      vertex 0.960308 -8.83311e-17 0
      vertex 1.0275 0.0975008 0
      vertex 1.125 -1.249e-16 0
    endloop
  endfacet
  facet normal -0 0 -1
    outer loop
      vertex 1.0275 0.0975008 0
      vertex 0.960308 -8.83311e-17 0
      vertex 0.960308 0.0975008 0
    endloop
  endfacet
  facet normal -0 0 -1
    outer loop
      vertex 1.125 0.164692 0
      vertex 1.0275 0.0975008 0
      vertex 1.0275 0.164692 0
    endloop
  endfacet
  facet normal 0 0 -1
    outer loop
      vertex 8.83311e-17 0.960308 0
      vertex 0.0975008 1.0275 0
      vertex 0.0975008 0.960308 0
    endloop
  endfacet
  facet normal -0 0 -1
    outer loop
      vertex 0.0975008 1.0275 0
      vertex 8.83311e-17 0.960308 0
      vertex 1.249e-16 1.125 0
    endloop
  endfacet
  facet normal 0 0 -1
    outer loop
      vertex 0.0975008 1.0275 0
      vertex 0.164692 1.125 0
      vertex 0.164692 1.0275 0
    endloop
  endfacet
  facet normal -0 0 -1
    outer loop
      vertex 0.164692 1.125 0
      vertex 0.0975008 1.0275 0
      vertex 1.249e-16 1.125 0
    endloop
  endfacet
  facet normal 0 0 -1
    outer loop
      vertex 0.164692 8.83311e-17 0
      vertex 0.0975008 0.0975008 0
      vertex 0.164692 0.0975008 0
    endloop
  endfacet
  facet normal 0 0 -1
    outer loop
      vertex 0.0975008 0.0975008 0
      vertex -8.83311e-17 0.164692 0
      vertex 0.0975008 0.164692 0
    endloop
  endfacet
  facet normal 0 0 -1
    outer loop
      vertex -1.249e-16 1.249e-16 0
      vertex 0.0975008 0.0975008 0
      vertex 0.164692 8.83311e-17 0
    endloop
  endfacet
  facet normal -0 0 -1
    outer loop
      vertex 0.0975008 0.0975008 0
      vertex -1.249e-16 1.249e-16 0
      vertex -8.83311e-17 0.164692 0
    endloop
  endfacet
  facet normal 0 0 -1
    outer loop
      vertex 1.0275 1.0275 0
      vertex 1.125 0.960308 0
      vertex 1.0275 0.960308 0
    endloop
  endfacet
  facet normal 0 0 -1
    outer loop
      vertex 1.125 0.960308 0
      vertex 1.0275 1.0275 0
      vertex 1.125 1.125 0
    endloop
  endfacet
  facet normal 0 0 -1
    outer loop
      vertex 0.960308 1.125 0
      vertex 1.0275 1.0275 0
      vertex 0.960308 1.0275 0
    endloop
  endfacet
  facet normal 0 0 -1
    outer loop
      vertex 1.0275 1.0275 0
      vertex 0.960308 1.125 0
      vertex 1.125 1.125 0
    endloop
  endfacet
  facet normal 1 -0 0
    outer loop
      vertex 1.125 0.90891 0.4
      vertex 1.125 1.125 0
      vertex 1.125 1.125 1.125
    endloop
  endfacet
  facet normal 1 0 0
    outer loop
      vertex 1.125 1.125 0
      vertex 1.125 0.942923 0.247213
      vertex 1.125 0.960308 0.083622
    endloop
  endfacet
  facet normal 1 0 0
    outer loop
      vertex 1.125 1.125 0
      vertex 1.125 0.90891 0.4
      vertex 1.125 0.942923 0.247213
    endloop
  endfacet
  facet normal 1 0 0
    outer loop
      vertex 1.125 1.125 1.125
      vertex 1.125 0.859757 0.535304
      vertex 1.125 0.90891 0.4
    endloop
  endfacet
  facet normal 1 0 0
    outer loop
      vertex 1.125 1.125 1.125
      vertex 1.125 0.797614 0.647213
      vertex 1.125 0.859757 0.535304
    endloop
  endfacet
  facet normal 1 0 0
    outer loop
      vertex 1.125 1.125 1.125
      vertex 1.125 0.725194 0.730836
      vertex 1.125 0.797614 0.647213
    endloop
  endfacet
  facet normal 1 0 0
    outer loop
      vertex 1.125 1.125 1.125
      vertex 1.125 0.645664 0.782517
      vertex 1.125 0.725194 0.730836
    endloop
  endfacet
  facet normal 1 0 0
    outer loop
      vertex 1.125 1.125 1.125
      vertex 1.125 0.5625 0.799999
      vertex 1.125 0.645664 0.782517
    endloop
  endfacet
  facet normal 1 -0 0
    outer loop
      vertex 1.125 -1.249e-16 1.125
      vertex 1.125 0.5625 0.799999
      vertex 1.125 1.125 1.125
    endloop
  endfacet
  facet normal 1 0 0
    outer loop
      vertex 1.125 0.5625 0.799999
      vertex 1.125 -1.249e-16 1.125
      vertex 1.125 0.479336 0.782517
    endloop
  endfacet
  facet normal 1 0 0
    outer loop
      vertex 1.125 -1.249e-16 1.125
      vertex 1.125 0.399806 0.730836
      vertex 1.125 0.479336 0.782517
    endloop
  endfacet
  facet normal 1 0 0
    outer loop
      vertex 1.125 -1.249e-16 1.125
      vertex 1.125 0.327386 0.647213
      vertex 1.125 0.399806 0.730836
    endloop
  endfacet
  facet normal 1 0 0
    outer loop
      vertex 1.125 -1.249e-16 1.125
      vertex 1.125 0.265243 0.535304
      vertex 1.125 0.327386 0.647213
    endloop
  endfacet
  facet normal 1 0 0
    outer loop
      vertex 1.125 -1.249e-16 1.125
      vertex 1.125 0.21609 0.4
      vertex 1.125 0.265243 0.535304
    endloop
  endfacet
  facet normal 1 0 0
    outer loop
      vertex 1.125 -1.249e-16 0
      vertex 1.125 0.21609 0.4
      vertex 1.125 -1.249e-16 1.125
    endloop
  endfacet
  facet normal 1 0 0
    outer loop
      vertex 1.125 0.21609 0.4
      vertex 1.125 -1.249e-16 0
      vertex 1.125 0.182077 0.247213
    endloop
  endfacet
  facet normal 1 0 0
    outer loop
      vertex 1.125 0.182077 0.247213
      vertex 1.125 -1.249e-16 0
      vertex 1.125 0.164692 0.083622
    endloop
  endfacet
  facet normal 1 0 0
    outer loop
      vertex 1.125 0.164692 0.083622
      vertex 1.125 -1.249e-16 0
      vertex 1.125 0.164692 0
    endloop
  endfacet
  facet normal 1 0 0
    outer loop
      vertex 1.125 1.125 0
      vertex 1.125 0.960308 0.083622
      vertex 1.125 0.960308 0
    endloop
  endfacet
  facet normal -1 2.22045e-16 0
    outer loop
      vertex -8.83311e-17 0.164692 0
      vertex -1.249e-16 1.249e-16 0
      vertex -8.83311e-17 0.164692 0.083622
    endloop
  endfacet
  facet normal -1 2.22045e-16 0
    outer loop
      vertex 8.83311e-17 0.960308 0.083622
      vertex 1.249e-16 1.125 0
      vertex 8.83311e-17 0.960308 0
    endloop
  endfacet
  facet normal -1 2.22045e-16 0
    outer loop
      vertex 8.44708e-17 0.942923 0.247213
      vertex 1.249e-16 1.125 0
      vertex 8.83311e-17 0.960308 0.083622
    endloop
  endfacet
  facet normal -1 2.22045e-16 0
    outer loop
      vertex 7.69184e-17 0.90891 0.4
      vertex 1.249e-16 1.125 0
      vertex 8.44708e-17 0.942923 0.247213
    endloop
  endfacet
  facet normal -1 2.22045e-16 0
    outer loop
      vertex 1.249e-16 1.125 0
      vertex 7.69184e-17 0.90891 0.4
      vertex 1.249e-16 1.125 1.125
    endloop
  endfacet
  facet normal -1 2.22045e-16 0
    outer loop
      vertex 6.60044e-17 0.859757 0.535304
      vertex 1.249e-16 1.125 1.125
      vertex 7.69184e-17 0.90891 0.4
    endloop
  endfacet
  facet normal -1 2.22045e-16 0
    outer loop
      vertex 5.22058e-17 0.797614 0.647213
      vertex 1.249e-16 1.125 1.125
      vertex 6.60044e-17 0.859757 0.535304
    endloop
  endfacet
  facet normal -1 2.22045e-16 0
    outer loop
      vertex 3.61253e-17 0.725194 0.730836
      vertex 1.249e-16 1.125 1.125
      vertex 5.22058e-17 0.797614 0.647213
    endloop
  endfacet
  facet normal -1 2.22045e-16 0
    outer loop
      vertex 1.84662e-17 0.645664 0.782517
      vertex 1.249e-16 1.125 1.125
      vertex 3.61253e-17 0.725194 0.730836
    endloop
  endfacet
  facet normal -1 2.22045e-16 0
    outer loop
      vertex 0 0.5625 0.799999
      vertex 1.249e-16 1.125 1.125
      vertex 1.84662e-17 0.645664 0.782517
    endloop
  endfacet
  facet normal -1 2.22045e-16 0
    outer loop
      vertex -1.249e-16 1.249e-16 1.125
      vertex 0 0.5625 0.799999
      vertex -1.84662e-17 0.479336 0.782517
    endloop
  endfacet
  facet normal -1 2.22045e-16 -3.02244e-32
    outer loop
      vertex -1.249e-16 1.249e-16 0
      vertex -8.44708e-17 0.182077 0.247213
      vertex -8.83311e-17 0.164692 0.083622
    endloop
  endfacet
  facet normal -1 2.22045e-16 0
    outer loop
      vertex -1.249e-16 1.249e-16 0
      vertex -7.69184e-17 0.21609 0.4
      vertex -8.44708e-17 0.182077 0.247213
    endloop
  endfacet
  facet normal -1 2.22045e-16 0
    outer loop
      vertex -1.249e-16 1.249e-16 1.125
      vertex -7.69184e-17 0.21609 0.4
      vertex -1.249e-16 1.249e-16 0
    endloop
  endfacet
  facet normal -1 2.22045e-16 -3.37119e-32
    outer loop
      vertex 0 0.5625 0.799999
      vertex -1.249e-16 1.249e-16 1.125
      vertex 1.249e-16 1.125 1.125
    endloop
  endfacet
  facet normal -1 2.22045e-16 -2.96238e-32
    outer loop
      vertex -3.61253e-17 0.399806 0.730836
      vertex -1.249e-16 1.249e-16 1.125
      vertex -1.84662e-17 0.479336 0.782517
    endloop
  endfacet
  facet normal -1 2.22045e-16 -2.48594e-32
    outer loop
      vertex -5.22058e-17 0.327386 0.647213
      vertex -1.249e-16 1.249e-16 1.125
      vertex -3.61253e-17 0.399806 0.730836
    endloop
  endfacet
  facet normal -1 2.22045e-16 -2.32289e-32
    outer loop
      vertex -6.60044e-17 0.265243 0.535304
      vertex -1.249e-16 1.249e-16 1.125
      vertex -5.22058e-17 0.327386 0.647213
    endloop
  endfacet
  facet normal -1 2.22045e-16 -1.78125e-32
    outer loop
      vertex -7.69184e-17 0.21609 0.4
      vertex -1.249e-16 1.249e-16 1.125
      vertex -6.60044e-17 0.265243 0.535304
    endloop
  endfacet
  facet normal 0 1 0
    outer loop
      vertex 0.78125 0.0625 1.0625
      vertex 0.5625 0.0625 0.799999
      vertex 0.34375 0.0625 1.0625
    endloop
  endfacet
  facet normal 0 1 0
    outer loop
      vertex 0.78125 0.0625 1.0625
      vertex 0.645664 0.0625 0.782517
      vertex 0.5625 0.0625 0.799999
    endloop
  endfacet
  facet normal 0 1 0
    outer loop
      vertex 0.78125 0.0625 1.0625
      vertex 0.725194 0.0625 0.730836
      vertex 0.645664 0.0625 0.782517
    endloop
  endfacet
  facet normal -0 1 0
    outer loop
      vertex 0.725194 0.0625 0.730836
      vertex 0.78125 0.0625 1.0625
      vertex 0.78125 0.0625 0.666108
    endloop
  endfacet
  facet normal 0 1 -0
    outer loop
      vertex 0.479336 0.0625 0.782517
      vertex 0.34375 0.0625 1.0625
      vertex 0.5625 0.0625 0.799999
    endloop
  endfacet
  facet normal 0 1 -0
    outer loop
      vertex 0.399806 0.0625 0.730836
      vertex 0.34375 0.0625 1.0625
      vertex 0.479336 0.0625 0.782517
    endloop
  endfacet
  facet normal 0 1 0
    outer loop
      vertex 0.34375 0.0625 1.0625
      vertex 0.399806 0.0625 0.730836
      vertex 0.34375 0.0625 0.666108
    endloop
  endfacet
  facet normal 0 0 -1
    outer loop
      vertex 0.34375 1.0275 1.0625
      vertex 0.78125 1.0625 1.0625
      vertex 0.78125 1.0275 1.0625
    endloop
  endfacet
  facet normal -0 0 -1
    outer loop
      vertex 0.78125 1.0625 1.0625
      vertex 0.34375 1.0275 1.0625
      vertex 0.34375 1.0625 1.0625
    endloop
  endfacet
  facet normal 0 0 -1
    outer loop
      vertex 0.34375 0.0625 1.0625
      vertex 0.78125 0.0975008 1.0625
      vertex 0.78125 0.0625 1.0625
    endloop
  endfacet
  facet normal -0 0 -1
    outer loop
      vertex 0.78125 0.0975008 1.0625
      vertex 0.34375 0.0625 1.0625
      vertex 0.34375 0.0975008 1.0625
    endloop
  endfacet
  facet normal 0 -1 0
    outer loop
      vertex 0.34375 1.0625 1.0625
      vertex 0.5625 1.0625 0.799999
      vertex 0.78125 1.0625 1.0625
    endloop
  endfacet
  facet normal 0 -1 0
    outer loop
      vertex 0.34375 1.0625 1.0625
      vertex 0.479336 1.0625 0.782517
      vertex 0.5625 1.0625 0.799999
    endloop
  endfacet
  facet normal 0 -1 0
    outer loop
      vertex 0.34375 1.0625 1.0625
      vertex 0.399806 1.0625 0.730836
      vertex 0.479336 1.0625 0.782517
    endloop
  endfacet
  facet normal -0 -1 0
    outer loop
      vertex 0.399806 1.0625 0.730836
      vertex 0.34375 1.0625 1.0625
      vertex 0.34375 1.0625 0.666108
    endloop
  endfacet
  facet normal 0 -1 0
    outer loop
      vertex 0.645664 1.0625 0.782517
      vertex 0.78125 1.0625 1.0625
      vertex 0.5625 1.0625 0.799999
    endloop
  endfacet
  facet normal 0 -1 0
    outer loop
      vertex 0.725194 1.0625 0.730836
      vertex 0.78125 1.0625 1.0625
      vertex 0.645664 1.0625 0.782517
    endloop
  endfacet
  facet normal 0 -1 -0
    outer loop
      vertex 0.78125 1.0625 1.0625
      vertex 0.725194 1.0625 0.730836
      vertex 0.78125 1.0625 0.666108
    endloop
  endfacet
  facet normal -1 0 0
    outer loop
      vertex 0.78125 1.0275 0.666108
      vertex 0.78125 1.0625 1.0625
      vertex 0.78125 1.0625 0.666108
    endloop
  endfacet
  facet normal -1 -0 0
    outer loop
      vertex 0.78125 1.0625 1.0625
      vertex 0.78125 1.0275 0.666108
      vertex 0.78125 1.0275 1.0625
    endloop
  endfacet
  facet normal -1 0 0
    outer loop
      vertex 0.78125 0.0625 0.666108
      vertex 0.78125 0.0975008 1.0625
      vertex 0.78125 0.0975008 0.666108
    endloop
  endfacet
  facet normal -1 -0 0
    outer loop
      vertex 0.78125 0.0975008 1.0625
      vertex 0.78125 0.0625 0.666108
      vertex 0.78125 0.0625 1.0625
    endloop
  endfacet
  facet normal 1 -0 0
    outer loop
      vertex 0.34375 1.0275 1.0625
      vertex 0.34375 1.0625 0.666108
      vertex 0.34375 1.0625 1.0625
    endloop
  endfacet
  facet normal 1 0 0
    outer loop
      vertex 0.34375 1.0625 0.666108
      vertex 0.34375 1.0275 1.0625
      vertex 0.34375 1.0275 0.666108
    endloop
  endfacet
  facet normal 1 -0 0
    outer loop
      vertex 0.34375 0.0625 1.0625
      vertex 0.34375 0.0975008 0.666108
      vertex 0.34375 0.0975008 1.0625
    endloop
  endfacet
  facet normal 1 0 0
    outer loop
      vertex 0.34375 0.0975008 0.666108
      vertex 0.34375 0.0625 1.0625
      vertex 0.34375 0.0625 0.666108
    endloop
  endfacet
  facet normal 0 1 0
    outer loop
      vertex 1.0275 0.0975008 1.125
      vertex 0.78125 0.0975008 1.0625
      vertex 0.0975008 0.0975008 1.125
    endloop
  endfacet
  facet normal 0 1 0
    outer loop
      vertex 1.0275 0.0975008 1.125
      vertex 0.78125 0.0975008 0.666108
      vertex 0.78125 0.0975008 1.0625
    endloop
  endfacet
  facet normal 0 1 0
    outer loop
      vertex 1.0275 0.0975008 1.125
      vertex 0.797614 0.0975008 0.647213
      vertex 0.78125 0.0975008 0.666108
    endloop
  endfacet
  facet normal 0 1 0
    outer loop
      vertex 1.0275 0.0975008 1.125
      vertex 0.859757 0.0975008 0.535304
      vertex 0.797614 0.0975008 0.647213
    endloop
  endfacet
  facet normal 0 1 0
    outer loop
      vertex 1.0275 0.0975008 1.125
      vertex 0.90891 0.0975008 0.4
      vertex 0.859757 0.0975008 0.535304
    endloop
  endfacet
  facet normal 0 1 0
    outer loop
      vertex 1.0275 0.0975008 1.125
      vertex 0.942923 0.0975008 0.247213
      vertex 0.90891 0.0975008 0.4
    endloop
  endfacet
  facet normal 0 1 -0
    outer loop
      vertex 1.0275 0.0975008 0
      vertex 0.942923 0.0975008 0.247213
      vertex 1.0275 0.0975008 1.125
    endloop
  endfacet
  facet normal 0 1 0
    outer loop
      vertex 0.942923 0.0975008 0.247213
      vertex 1.0275 0.0975008 0
      vertex 0.960308 0.0975008 0.083622
    endloop
  endfacet
  facet normal 0 1 0
    outer loop
      vertex 0.960308 0.0975008 0.083622
      vertex 1.0275 0.0975008 0
      vertex 0.960308 0.0975008 0
    endloop
  endfacet
  facet normal 0 1 -0
    outer loop
      vertex 0.34375 0.0975008 1.0625
      vertex 0.0975008 0.0975008 1.125
      vertex 0.78125 0.0975008 1.0625
    endloop
  endfacet
  facet normal 0 1 -0
    outer loop
      vertex 0.34375 0.0975008 0.666108
      vertex 0.0975008 0.0975008 1.125
      vertex 0.34375 0.0975008 1.0625
    endloop
  endfacet
  facet normal 0 1 -0
    outer loop
      vertex 0.327386 0.0975008 0.647213
      vertex 0.0975008 0.0975008 1.125
      vertex 0.34375 0.0975008 0.666108
    endloop
  endfacet
  facet normal 0 1 -0
    outer loop
      vertex 0.265243 0.0975008 0.535304
      vertex 0.0975008 0.0975008 1.125
      vertex 0.327386 0.0975008 0.647213
    endloop
  endfacet
  facet normal 0 1 -0
    outer loop
      vertex 0.21609 0.0975008 0.4
      vertex 0.0975008 0.0975008 1.125
      vertex 0.265243 0.0975008 0.535304
    endloop
  endfacet
  facet normal 0 1 -0
    outer loop
      vertex 0.182077 0.0975008 0.247213
      vertex 0.0975008 0.0975008 1.125
      vertex 0.21609 0.0975008 0.4
    endloop
  endfacet
  facet normal 0 1 0
    outer loop
      vertex 0.0975008 0.0975008 0
      vertex 0.182077 0.0975008 0.247213
      vertex 0.164692 0.0975008 0.083622
    endloop
  endfacet
  facet normal 0 1 0
    outer loop
      vertex 0.0975008 0.0975008 0
      vertex 0.164692 0.0975008 0.083622
      vertex 0.164692 0.0975008 0
    endloop
  endfacet
  facet normal 0 1 0
    outer loop
      vertex 0.182077 0.0975008 0.247213
      vertex 0.0975008 0.0975008 0
      vertex 0.0975008 0.0975008 1.125
    endloop
  endfacet
  facet normal 0 -1 0
    outer loop
      vertex 0.0975008 1.0275 1.125
      vertex 0.34375 1.0275 1.0625
      vertex 1.0275 1.0275 1.125
    endloop
  endfacet
  facet normal 0 -1 0
    outer loop
      vertex 0.0975008 1.0275 1.125
      vertex 0.34375 1.0275 0.666108
      vertex 0.34375 1.0275 1.0625
    endloop
  endfacet
  facet normal 0 -1 0
    outer loop
      vertex 0.0975008 1.0275 1.125
      vertex 0.327386 1.0275 0.647213
      vertex 0.34375 1.0275 0.666108
    endloop
  endfacet
  facet normal 0 -1 0
    outer loop
      vertex 0.0975008 1.0275 1.125
      vertex 0.265243 1.0275 0.535304
      vertex 0.327386 1.0275 0.647213
    endloop
  endfacet
  facet normal 0 -1 0
    outer loop
      vertex 0.0975008 1.0275 1.125
      vertex 0.21609 1.0275 0.4
      vertex 0.265243 1.0275 0.535304
    endloop
  endfacet
  facet normal 0 -1 0
    outer loop
      vertex 0.0975008 1.0275 1.125
      vertex 0.182077 1.0275 0.247213
      vertex 0.21609 1.0275 0.4
    endloop
  endfacet
  facet normal 0 -1 0
    outer loop
      vertex 0.0975008 1.0275 0
      vertex 0.182077 1.0275 0.247213
      vertex 0.0975008 1.0275 1.125
    endloop
  endfacet
  facet normal 0 -1 0
    outer loop
      vertex 0.182077 1.0275 0.247213
      vertex 0.0975008 1.0275 0
      vertex 0.164692 1.0275 0.083622
    endloop
  endfacet
  facet normal 0 -1 -0
    outer loop
      vertex 0.164692 1.0275 0.083622
      vertex 0.0975008 1.0275 0
      vertex 0.164692 1.0275 0
    endloop
  endfacet
  facet normal 0 -1 0
    outer loop
      vertex 0.78125 1.0275 1.0625
      vertex 1.0275 1.0275 1.125
      vertex 0.34375 1.0275 1.0625
    endloop
  endfacet
  facet normal 0 -1 0
    outer loop
      vertex 0.78125 1.0275 0.666108
      vertex 1.0275 1.0275 1.125
      vertex 0.78125 1.0275 1.0625
    endloop
  endfacet
  facet normal 0 -1 0
    outer loop
      vertex 0.797614 1.0275 0.647213
      vertex 1.0275 1.0275 1.125
      vertex 0.78125 1.0275 0.666108
    endloop
  endfacet
  facet normal 0 -1 0
    outer loop
      vertex 0.859757 1.0275 0.535304
      vertex 1.0275 1.0275 1.125
      vertex 0.797614 1.0275 0.647213
    endloop
  endfacet
  facet normal 0 -1 0
    outer loop
      vertex 0.90891 1.0275 0.4
      vertex 1.0275 1.0275 1.125
      vertex 0.859757 1.0275 0.535304
    endloop
  endfacet
  facet normal 0 -1 0
    outer loop
      vertex 0.942923 1.0275 0.247213
      vertex 1.0275 1.0275 1.125
      vertex 0.90891 1.0275 0.4
    endloop
  endfacet
  facet normal 0 -1 0
    outer loop
      vertex 1.0275 1.0275 0
      vertex 0.942923 1.0275 0.247213
      vertex 0.960308 1.0275 0.083622
    endloop
  endfacet
  facet normal 0 -1 0
    outer loop
      vertex 1.0275 1.0275 0
      vertex 0.960308 1.0275 0.083622
      vertex 0.960308 1.0275 0
    endloop
  endfacet
  facet normal 0 -1 0
    outer loop
      vertex 0.942923 1.0275 0.247213
      vertex 1.0275 1.0275 0
      vertex 1.0275 1.0275 1.125
    endloop
  endfacet
  facet normal -1 0 0
    outer loop
      vertex 1.0275 0.164692 0
      vertex 1.0275 0.0975008 0
      vertex 1.0275 0.164692 0.083622
    endloop
  endfacet
  facet normal -1 0 0
    outer loop
      vertex 1.0275 0.960308 0.083622
      vertex 1.0275 1.0275 0
      vertex 1.0275 0.960308 0
    endloop
  endfacet
  facet normal -1 0 0
    outer loop
      vertex 1.0275 0.942923 0.247213
      vertex 1.0275 1.0275 0
      vertex 1.0275 0.960308 0.083622
    endloop
  endfacet
  facet normal -1 0 0
    outer loop
      vertex 1.0275 1.0275 0
      vertex 1.0275 0.942923 0.247213
      vertex 1.0275 1.0275 1.125
    endloop
  endfacet
  facet normal -1 0 0
    outer loop
      vertex 1.0275 0.90891 0.4
      vertex 1.0275 1.0275 1.125
      vertex 1.0275 0.942923 0.247213
    endloop
  endfacet
  facet normal -1 0 0
    outer loop
      vertex 1.0275 0.859757 0.535304
      vertex 1.0275 1.0275 1.125
      vertex 1.0275 0.90891 0.4
    endloop
  endfacet
  facet normal -1 0 0
    outer loop
      vertex 1.0275 0.797614 0.647213
      vertex 1.0275 1.0275 1.125
      vertex 1.0275 0.859757 0.535304
    endloop
  endfacet
  facet normal -1 0 0
    outer loop
      vertex 1.0275 0.725194 0.730836
      vertex 1.0275 1.0275 1.125
      vertex 1.0275 0.797614 0.647213
    endloop
  endfacet
  facet normal -1 0 0
    outer loop
      vertex 1.0275 0.645664 0.782517
      vertex 1.0275 1.0275 1.125
      vertex 1.0275 0.725194 0.730836
    endloop
  endfacet
  facet normal -1 0 0
    outer loop
      vertex 1.0275 0.5625 0.799999
      vertex 1.0275 1.0275 1.125
      vertex 1.0275 0.645664 0.782517
    endloop
  endfacet
  facet normal -1 0 0
    outer loop
      vertex 1.0275 0.0975008 1.125
      vertex 1.0275 0.5625 0.799999
      vertex 1.0275 0.479336 0.782517
    endloop
  endfacet
  facet normal -1 0 0
    outer loop
      vertex 1.0275 0.0975008 0
      vertex 1.0275 0.182077 0.247213
      vertex 1.0275 0.164692 0.083622
    endloop
  endfacet
  facet normal -1 0 0
    outer loop
      vertex 1.0275 0.0975008 1.125
      vertex 1.0275 0.182077 0.247213
      vertex 1.0275 0.0975008 0
    endloop
  endfacet
  facet normal -1 0 0
    outer loop
      vertex 1.0275 0.5625 0.799999
      vertex 1.0275 0.0975008 1.125
      vertex 1.0275 1.0275 1.125
    endloop
  endfacet
  facet normal -1 0 0
    outer loop
      vertex 1.0275 0.399806 0.730836
      vertex 1.0275 0.0975008 1.125
      vertex 1.0275 0.479336 0.782517
    endloop
  endfacet
  facet normal -1 0 0
    outer loop
      vertex 1.0275 0.327386 0.647213
      vertex 1.0275 0.0975008 1.125
      vertex 1.0275 0.399806 0.730836
    endloop
  endfacet
  facet normal -1 0 0
    outer loop
      vertex 1.0275 0.265243 0.535304
      vertex 1.0275 0.0975008 1.125
      vertex 1.0275 0.327386 0.647213
    endloop
  endfacet
  facet normal -1 0 0
    outer loop
      vertex 1.0275 0.21609 0.4
      vertex 1.0275 0.0975008 1.125
      vertex 1.0275 0.265243 0.535304
    endloop
  endfacet
  facet normal -1 0 0
    outer loop
      vertex 1.0275 0.182077 0.247213
      vertex 1.0275 0.0975008 1.125
      vertex 1.0275 0.21609 0.4
    endloop
  endfacet
  facet normal 1 -0 0
    outer loop
      vertex 0.0975008 0.942923 0.247213
      vertex 0.0975008 1.0275 0
      vertex 0.0975008 1.0275 1.125
    endloop
  endfacet
  facet normal 1 0 0
    outer loop
      vertex 0.0975008 1.0275 0
      vertex 0.0975008 0.942923 0.247213
      vertex 0.0975008 0.960308 0.083622
    endloop
  endfacet
  facet normal 1 0 0
    outer loop
      vertex 0.0975008 1.0275 1.125
      vertex 0.0975008 0.90891 0.4
      vertex 0.0975008 0.942923 0.247213
    endloop
  endfacet
  facet normal 1 0 0
    outer loop
      vertex 0.0975008 1.0275 1.125
      vertex 0.0975008 0.859757 0.535304
      vertex 0.0975008 0.90891 0.4
    endloop
  endfacet
  facet normal 1 0 0
    outer loop
      vertex 0.0975008 1.0275 1.125
      vertex 0.0975008 0.797614 0.647213
      vertex 0.0975008 0.859757 0.535304
    endloop
  endfacet
  facet normal 1 0 0
    outer loop
      vertex 0.0975008 1.0275 1.125
      vertex 0.0975008 0.725194 0.730836
      vertex 0.0975008 0.797614 0.647213
    endloop
  endfacet
  facet normal 1 0 0
    outer loop
      vertex 0.0975008 1.0275 1.125
      vertex 0.0975008 0.645664 0.782517
      vertex 0.0975008 0.725194 0.730836
    endloop
  endfacet
  facet normal 1 0 0
    outer loop
      vertex 0.0975008 1.0275 1.125
      vertex 0.0975008 0.5625 0.799999
      vertex 0.0975008 0.645664 0.782517
    endloop
  endfacet
  facet normal 1 -0 0
    outer loop
      vertex 0.0975008 0.0975008 1.125
      vertex 0.0975008 0.5625 0.799999
      vertex 0.0975008 1.0275 1.125
    endloop
  endfacet
  facet normal 1 0 0
    outer loop
      vertex 0.0975008 0.5625 0.799999
      vertex 0.0975008 0.0975008 1.125
      vertex 0.0975008 0.479336 0.782517
    endloop
  endfacet
  facet normal 1 0 0
    outer loop
      vertex 0.0975008 0.0975008 1.125
      vertex 0.0975008 0.399806 0.730836
      vertex 0.0975008 0.479336 0.782517
    endloop
  endfacet
  facet normal 1 0 0
    outer loop
      vertex 0.0975008 0.0975008 1.125
      vertex 0.0975008 0.327386 0.647213
      vertex 0.0975008 0.399806 0.730836
    endloop
  endfacet
  facet normal 1 0 0
    outer loop
      vertex 0.0975008 0.0975008 1.125
      vertex 0.0975008 0.265243 0.535304
      vertex 0.0975008 0.327386 0.647213
    endloop
  endfacet
  facet normal 1 0 0
    outer loop
      vertex 0.0975008 0.0975008 1.125
      vertex 0.0975008 0.21609 0.4
      vertex 0.0975008 0.265243 0.535304
    endloop
  endfacet
  facet normal 1 0 0
    outer loop
      vertex 0.0975008 0.0975008 1.125
      vertex 0.0975008 0.182077 0.247213
      vertex 0.0975008 0.21609 0.4
    endloop
  endfacet
  facet normal 1 0 0
    outer loop
      vertex 0.0975008 0.0975008 0
      vertex 0.0975008 0.182077 0.247213
      vertex 0.0975008 0.0975008 1.125
    endloop
  endfacet
  facet normal 1 0 0
    outer loop
      vertex 0.0975008 0.182077 0.247213
      vertex 0.0975008 0.0975008 0
      vertex 0.0975008 0.164692 0.083622
    endloop
  endfacet
  facet normal 1 0 0
    outer loop
      vertex 0.0975008 0.164692 0.083622
      vertex 0.0975008 0.0975008 0
      vertex 0.0975008 0.164692 0
    endloop
  endfacet
  facet normal 1 0 0
    outer loop
      vertex 0.0975008 1.0275 0
      vertex 0.0975008 0.960308 0.083622
      vertex 0.0975008 0.960308 0
    endloop
  endfacet
  facet normal 0.205712 0 -0.978612
    outer loop
      vertex 0.479336 1.0625 0.782517
      vertex 0.5625 1.125 0.799999
      vertex 0.5625 1.0625 0.799999
    endloop
  endfacet
  facet normal 0.205712 0 -0.978612
    outer loop
      vertex 0.5625 1.125 0.799999
      vertex 0.479336 1.0625 0.782517
      vertex 0.479336 1.125 0.782517
    endloop
  endfacet
  facet normal 0.205712 0 -0.978612
    outer loop
      vertex 0.479336 1.84662e-17 0.782517
      vertex 0.5625 0.0625 0.799999
      vertex 0.5625 0 0.799999
    endloop
  endfacet
  facet normal 0.205712 0 -0.978612
    outer loop
      vertex 0.5625 0.0625 0.799999
      vertex 0.479336 1.84662e-17 0.782517
      vertex 0.479336 0.0625 0.782517
    endloop
  endfacet
  facet normal 0.874251 0 -0.485474
    outer loop
      vertex 0.327386 0.0975008 0.647213
      vertex 0.265243 6.60044e-17 0.535304
      vertex 0.265243 0.0975008 0.535304
    endloop
  endfacet
  facet normal 0.874251 0 -0.485474
    outer loop
      vertex 0.265243 6.60044e-17 0.535304
      vertex 0.327386 0.0975008 0.647213
      vertex 0.327386 5.22058e-17 0.647213
    endloop
  endfacet
  facet normal 0.874251 0 -0.485474
    outer loop
      vertex 0.327386 1.0275 0.647213
      vertex 0.265243 1.125 0.535304
      vertex 0.327386 1.125 0.647213
    endloop
  endfacet
  facet normal 0.874251 0 -0.485474
    outer loop
      vertex 0.265243 1.125 0.535304
      vertex 0.327386 1.0275 0.647213
      vertex 0.265243 1.0275 0.535304
    endloop
  endfacet
  facet normal 0.755926 0 -0.654657
    outer loop
      vertex 0.399806 3.61253e-17 0.730836
      vertex 0.34375 0.0625 0.666108
      vertex 0.399806 0.0625 0.730836
    endloop
  endfacet
  facet normal 0.755927 1.52033e-07 -0.654656
    outer loop
      vertex 0.34375 0.0625 0.666108
      vertex 0.399806 3.61253e-17 0.730836
      vertex 0.327386 5.22058e-17 0.647213
    endloop
  endfacet
  facet normal 0.755927 0 -0.654656
    outer loop
      vertex 0.34375 0.0625 0.666108
      vertex 0.327386 0.0975008 0.647213
      vertex 0.34375 0.0975008 0.666108
    endloop
  endfacet
  facet normal 0.755927 0 -0.654656
    outer loop
      vertex 0.327386 0.0975008 0.647213
      vertex 0.34375 0.0625 0.666108
      vertex 0.327386 5.22058e-17 0.647213
    endloop
  endfacet
  facet normal 0.755926 0 -0.654657
    outer loop
      vertex 0.34375 1.0625 0.666108
      vertex 0.399806 1.125 0.730836
      vertex 0.399806 1.0625 0.730836
    endloop
  endfacet
  facet normal 0.755927 -1.52033e-07 -0.654656
    outer loop
      vertex 0.399806 1.125 0.730836
      vertex 0.34375 1.0625 0.666108
      vertex 0.327386 1.125 0.647213
    endloop
  endfacet
  facet normal 0.755927 0 -0.654656
    outer loop
      vertex 0.327386 1.0275 0.647213
      vertex 0.34375 1.0625 0.666108
      vertex 0.34375 1.0275 0.666108
    endloop
  endfacet
  facet normal 0.755927 0 -0.654656
    outer loop
      vertex 0.34375 1.0625 0.666108
      vertex 0.327386 1.0275 0.647213
      vertex 0.327386 1.125 0.647213
    endloop
  endfacet
  facet normal -1 0 0
    outer loop
      vertex 0.960308 1.0275 0
      vertex 0.960308 1.125 0.083622
      vertex 0.960308 1.125 0
    endloop
  endfacet
  facet normal -1 -0 0
    outer loop
      vertex 0.960308 1.125 0.083622
      vertex 0.960308 1.0275 0
      vertex 0.960308 1.0275 0.083622
    endloop
  endfacet
  facet normal -1 0 0
    outer loop
      vertex 0.960308 -8.83311e-17 0
      vertex 0.960308 0.0975008 0.083622
      vertex 0.960308 0.0975008 0
    endloop
  endfacet
  facet normal -1 -0 0
    outer loop
      vertex 0.960308 0.0975008 0.083622
      vertex 0.960308 -8.83311e-17 0
      vertex 0.960308 -8.83311e-17 0.083622
    endloop
  endfacet
  facet normal 1 -0 0
    outer loop
      vertex 0.164692 8.83311e-17 0.083622
      vertex 0.164692 0.0975008 0
      vertex 0.164692 0.0975008 0.083622
    endloop
  endfacet
  facet normal 1 0 0
    outer loop
      vertex 0.164692 0.0975008 0
      vertex 0.164692 8.83311e-17 0.083622
      vertex 0.164692 8.83311e-17 0
    endloop
  endfacet
  facet normal 1 -0 0
    outer loop
      vertex 0.164692 1.0275 0.083622
      vertex 0.164692 1.125 0
      vertex 0.164692 1.125 0.083622
    endloop
  endfacet
  facet normal 1 0 0
    outer loop
      vertex 0.164692 1.125 0
      vertex 0.164692 1.0275 0.083622
      vertex 0.164692 1.0275 0
    endloop
  endfacet
  facet normal 0.544893 0 -0.838505
    outer loop
      vertex 0.399806 1.0625 0.730836
      vertex 0.479336 1.125 0.782517
      vertex 0.479336 1.0625 0.782517
    endloop
  endfacet
  facet normal 0.544893 0 -0.838505
    outer loop
      vertex 0.479336 1.125 0.782517
      vertex 0.399806 1.0625 0.730836
      vertex 0.399806 1.125 0.730836
    endloop
  endfacet
  facet normal 0.544893 0 -0.838505
    outer loop
      vertex 0.399806 3.61253e-17 0.730836
      vertex 0.479336 0.0625 0.782517
      vertex 0.479336 1.84662e-17 0.782517
    endloop
  endfacet
  facet normal 0.544893 0 -0.838505
    outer loop
      vertex 0.479336 0.0625 0.782517
      vertex 0.399806 3.61253e-17 0.730836
      vertex 0.399806 0.0625 0.730836
    endloop
  endfacet
  facet normal 0.976105 0 -0.217298
    outer loop
      vertex 0.21609 1.0275 0.4
      vertex 0.182077 1.125 0.247213
      vertex 0.21609 1.125 0.4
    endloop
  endfacet
  facet normal 0.976105 0 -0.217298
    outer loop
      vertex 0.182077 1.125 0.247213
      vertex 0.21609 1.0275 0.4
      vertex 0.182077 1.0275 0.247213
    endloop
  endfacet
  facet normal 0.976105 0 -0.217298
    outer loop
      vertex 0.21609 0.0975008 0.4
      vertex 0.182077 8.44708e-17 0.247213
      vertex 0.182077 0.0975008 0.247213
    endloop
  endfacet
  facet normal 0.976105 0 -0.217298
    outer loop
      vertex 0.182077 8.44708e-17 0.247213
      vertex 0.21609 0.0975008 0.4
      vertex 0.21609 7.69184e-17 0.4
    endloop
  endfacet
  facet normal 0.9944 0 -0.105679
    outer loop
      vertex 0.182077 0.0975008 0.247213
      vertex 0.164692 8.83311e-17 0.083622
      vertex 0.164692 0.0975008 0.083622
    endloop
  endfacet
  facet normal 0.9944 0 -0.105679
    outer loop
      vertex 0.164692 8.83311e-17 0.083622
      vertex 0.182077 0.0975008 0.247213
      vertex 0.182077 8.44708e-17 0.247213
    endloop
  endfacet
  facet normal 0.9944 0 -0.105679
    outer loop
      vertex 0.182077 1.0275 0.247213
      vertex 0.164692 1.125 0.083622
      vertex 0.182077 1.125 0.247213
    endloop
  endfacet
  facet normal 0.9944 0 -0.105679
    outer loop
      vertex 0.164692 1.125 0.083622
      vertex 0.182077 1.0275 0.247213
      vertex 0.164692 1.0275 0.083622
    endloop
  endfacet
  facet normal 0.939903 0 -0.341441
    outer loop
      vertex 0.265243 0.0975008 0.535304
      vertex 0.21609 7.69184e-17 0.4
      vertex 0.21609 0.0975008 0.4
    endloop
  endfacet
  facet normal 0.939903 0 -0.341441
    outer loop
      vertex 0.21609 7.69184e-17 0.4
      vertex 0.265243 0.0975008 0.535304
      vertex 0.265243 6.60044e-17 0.535304
    endloop
  endfacet
  facet normal 0.939903 0 -0.341441
    outer loop
      vertex 0.265243 1.0275 0.535304
      vertex 0.21609 1.125 0.4
      vertex 0.265243 1.125 0.535304
    endloop
  endfacet
  facet normal 0.939903 0 -0.341441
    outer loop
      vertex 0.21609 1.125 0.4
      vertex 0.265243 1.0275 0.535304
      vertex 0.21609 1.0275 0.4
    endloop
  endfacet
  facet normal -0.874251 0 -0.485474
    outer loop
      vertex 0.859757 1.0275 0.535304
      vertex 0.797614 1.125 0.647213
      vertex 0.859757 1.125 0.535304
    endloop
  endfacet
  facet normal -0.874251 -0 -0.485474
    outer loop
      vertex 0.797614 1.125 0.647213
      vertex 0.859757 1.0275 0.535304
      vertex 0.797614 1.0275 0.647213
    endloop
  endfacet
  facet normal -0.874251 0 -0.485474
    outer loop
      vertex 0.859757 0.0975008 0.535304
      vertex 0.797614 -5.22058e-17 0.647213
      vertex 0.797614 0.0975008 0.647213
    endloop
  endfacet
  facet normal -0.874251 0 -0.485474
    outer loop
      vertex 0.797614 -5.22058e-17 0.647213
      vertex 0.859757 0.0975008 0.535304
      vertex 0.859757 -6.60044e-17 0.535304
    endloop
  endfacet
  facet normal -0.9944 0 -0.105679
    outer loop
      vertex 0.960308 0.0975008 0.083622
      vertex 0.942923 -8.44708e-17 0.247213
      vertex 0.942923 0.0975008 0.247213
    endloop
  endfacet
  facet normal -0.9944 0 -0.105679
    outer loop
      vertex 0.942923 -8.44708e-17 0.247213
      vertex 0.960308 0.0975008 0.083622
      vertex 0.960308 -8.83311e-17 0.083622
    endloop
  endfacet
  facet normal -0.9944 0 -0.105679
    outer loop
      vertex 0.960308 1.0275 0.083622
      vertex 0.942923 1.125 0.247213
      vertex 0.960308 1.125 0.083622
    endloop
  endfacet
  facet normal -0.9944 -0 -0.105679
    outer loop
      vertex 0.942923 1.125 0.247213
      vertex 0.960308 1.0275 0.083622
      vertex 0.942923 1.0275 0.247213
    endloop
  endfacet
  facet normal -0.976105 0 -0.217298
    outer loop
      vertex 0.942923 0.0975008 0.247213
      vertex 0.90891 -7.69184e-17 0.4
      vertex 0.90891 0.0975008 0.4
    endloop
  endfacet
  facet normal -0.976105 0 -0.217298
    outer loop
      vertex 0.90891 -7.69184e-17 0.4
      vertex 0.942923 0.0975008 0.247213
      vertex 0.942923 -8.44708e-17 0.247213
    endloop
  endfacet
  facet normal -0.976105 0 -0.217298
    outer loop
      vertex 0.942923 1.0275 0.247213
      vertex 0.90891 1.125 0.4
      vertex 0.942923 1.125 0.247213
    endloop
  endfacet
  facet normal -0.976105 -0 -0.217298
    outer loop
      vertex 0.90891 1.125 0.4
      vertex 0.942923 1.0275 0.247213
      vertex 0.90891 1.0275 0.4
    endloop
  endfacet
  facet normal -0.939903 0 -0.341441
    outer loop
      vertex 0.90891 1.0275 0.4
      vertex 0.859757 1.125 0.535304
      vertex 0.90891 1.125 0.4
    endloop
  endfacet
  facet normal -0.939903 -0 -0.341441
    outer loop
      vertex 0.859757 1.125 0.535304
      vertex 0.90891 1.0275 0.4
      vertex 0.859757 1.0275 0.535304
    endloop
  endfacet
  facet normal -0.939903 0 -0.341441
    outer loop
      vertex 0.90891 0.0975008 0.4
      vertex 0.859757 -6.60044e-17 0.535304
      vertex 0.859757 0.0975008 0.535304
    endloop
  endfacet
  facet normal -0.939903 0 -0.341441
    outer loop
      vertex 0.859757 -6.60044e-17 0.535304
      vertex 0.90891 0.0975008 0.4
      vertex 0.90891 -7.69184e-17 0.4
    endloop
  endfacet
  facet normal -0.755927 -1.52033e-07 -0.654656
    outer loop
      vertex 0.797614 1.125 0.647213
      vertex 0.78125 1.0625 0.666108
      vertex 0.725194 1.125 0.730836
    endloop
  endfacet
  facet normal -0.755927 0 -0.654656
    outer loop
      vertex 0.797614 1.0275 0.647213
      vertex 0.78125 1.0625 0.666108
      vertex 0.797614 1.125 0.647213
    endloop
  endfacet
  facet normal -0.755927 -0 -0.654656
    outer loop
      vertex 0.78125 1.0625 0.666108
      vertex 0.797614 1.0275 0.647213
      vertex 0.78125 1.0275 0.666108
    endloop
  endfacet
  facet normal -0.755926 -0 -0.654657
    outer loop
      vertex 0.725194 1.125 0.730836
      vertex 0.78125 1.0625 0.666108
      vertex 0.725194 1.0625 0.730836
    endloop
  endfacet
  facet normal -0.755927 0 -0.654656
    outer loop
      vertex 0.797614 0.0975008 0.647213
      vertex 0.78125 0.0625 0.666108
      vertex 0.78125 0.0975008 0.666108
    endloop
  endfacet
  facet normal -0.755926 0 -0.654657
    outer loop
      vertex 0.78125 0.0625 0.666108
      vertex 0.725194 -3.61253e-17 0.730836
      vertex 0.725194 0.0625 0.730836
    endloop
  endfacet
  facet normal -0.755927 1.52033e-07 -0.654656
    outer loop
      vertex 0.78125 0.0625 0.666108
      vertex 0.797614 -5.22058e-17 0.647213
      vertex 0.725194 -3.61253e-17 0.730836
    endloop
  endfacet
  facet normal -0.755927 0 -0.654656
    outer loop
      vertex 0.797614 -5.22058e-17 0.647213
      vertex 0.78125 0.0625 0.666108
      vertex 0.797614 0.0975008 0.647213
    endloop
  endfacet
  facet normal -0.544893 0 -0.838505
    outer loop
      vertex 0.645664 -1.84662e-17 0.782517
      vertex 0.725194 0.0625 0.730836
      vertex 0.725194 -3.61253e-17 0.730836
    endloop
  endfacet
  facet normal -0.544893 0 -0.838505
    outer loop
      vertex 0.725194 0.0625 0.730836
      vertex 0.645664 -1.84662e-17 0.782517
      vertex 0.645664 0.0625 0.782517
    endloop
  endfacet
  facet normal -0.544893 0 -0.838505
    outer loop
      vertex 0.645664 1.0625 0.782517
      vertex 0.725194 1.125 0.730836
      vertex 0.725194 1.0625 0.730836
    endloop
  endfacet
  facet normal -0.544893 0 -0.838505
    outer loop
      vertex 0.725194 1.125 0.730836
      vertex 0.645664 1.0625 0.782517
      vertex 0.645664 1.125 0.782517
    endloop
  endfacet
  facet normal -0.205712 0 -0.978612
    outer loop
      vertex 0.5625 0 0.799999
      vertex 0.645664 0.0625 0.782517
      vertex 0.645664 -1.84662e-17 0.782517
    endloop
  endfacet
  facet normal -0.205712 0 -0.978612
    outer loop
      vertex 0.645664 0.0625 0.782517
      vertex 0.5625 0 0.799999
      vertex 0.5625 0.0625 0.799999
    endloop
  endfacet
  facet normal -0.205712 0 -0.978612
    outer loop
      vertex 0.5625 1.0625 0.799999
      vertex 0.645664 1.125 0.782517
      vertex 0.645664 1.0625 0.782517
    endloop
  endfacet
  facet normal -0.205712 0 -0.978612
    outer loop
      vertex 0.645664 1.125 0.782517
      vertex 0.5625 1.0625 0.799999
      vertex 0.5625 1.125 0.799999
    endloop
  endfacet
  facet normal 0 0.544893 -0.838505
    outer loop
      vertex 1.0275 0.399806 0.730836
      vertex 1.125 0.479336 0.782517
      vertex 1.125 0.399806 0.730836
    endloop
  endfacet
  facet normal 0 0.544893 -0.838505
    outer loop
      vertex 1.125 0.479336 0.782517
      vertex 1.0275 0.399806 0.730836
      vertex 1.0275 0.479336 0.782517
    endloop
  endfacet
  facet normal 0 0.544893 -0.838505
    outer loop
      vertex 0.0975008 0.399806 0.730836
      vertex -1.84662e-17 0.479336 0.782517
      vertex 0.0975008 0.479336 0.782517
    endloop
  endfacet
  facet normal 0 0.544893 -0.838505
    outer loop
      vertex -1.84662e-17 0.479336 0.782517
      vertex 0.0975008 0.399806 0.730836
      vertex -3.61253e-17 0.399806 0.730836
    endloop
  endfacet
  facet normal 0 0.874251 -0.485474
    outer loop
      vertex 0.0975008 0.265243 0.535304
      vertex -5.22058e-17 0.327386 0.647213
      vertex 0.0975008 0.327386 0.647213
    endloop
  endfacet
  facet normal 0 0.874251 -0.485474
    outer loop
      vertex -5.22058e-17 0.327386 0.647213
      vertex 0.0975008 0.265243 0.535304
      vertex -6.60044e-17 0.265243 0.535304
    endloop
  endfacet
  facet normal 0 0.874251 -0.485474
    outer loop
      vertex 1.125 0.265243 0.535304
      vertex 1.0275 0.327386 0.647213
      vertex 1.125 0.327386 0.647213
    endloop
  endfacet
  facet normal 0 0.874251 -0.485474
    outer loop
      vertex 1.0275 0.327386 0.647213
      vertex 1.125 0.265243 0.535304
      vertex 1.0275 0.265243 0.535304
    endloop
  endfacet
  facet normal 0 0.9944 -0.105679
    outer loop
      vertex 1.125 0.164692 0.083622
      vertex 1.0275 0.182077 0.247213
      vertex 1.125 0.182077 0.247213
    endloop
  endfacet
  facet normal 0 0.9944 -0.105679
    outer loop
      vertex 1.0275 0.182077 0.247213
      vertex 1.125 0.164692 0.083622
      vertex 1.0275 0.164692 0.083622
    endloop
  endfacet
  facet normal 0 0.9944 -0.105679
    outer loop
      vertex 0.0975008 0.164692 0.083622
      vertex -8.44708e-17 0.182077 0.247213
      vertex 0.0975008 0.182077 0.247213
    endloop
  endfacet
  facet normal 0 0.9944 -0.105679
    outer loop
      vertex -8.44708e-17 0.182077 0.247213
      vertex 0.0975008 0.164692 0.083622
      vertex -8.83311e-17 0.164692 0.083622
    endloop
  endfacet
  facet normal 0 0.205712 -0.978612
    outer loop
      vertex 0.0975008 0.479336 0.782517
      vertex 0 0.5625 0.799999
      vertex 0.0975008 0.5625 0.799999
    endloop
  endfacet
  facet normal 0 0.205712 -0.978612
    outer loop
      vertex 0 0.5625 0.799999
      vertex 0.0975008 0.479336 0.782517
      vertex -1.84662e-17 0.479336 0.782517
    endloop
  endfacet
  facet normal 0 0.205712 -0.978612
    outer loop
      vertex 1.0275 0.479336 0.782517
      vertex 1.125 0.5625 0.799999
      vertex 1.125 0.479336 0.782517
    endloop
  endfacet
  facet normal 0 0.205712 -0.978612
    outer loop
      vertex 1.125 0.5625 0.799999
      vertex 1.0275 0.479336 0.782517
      vertex 1.0275 0.5625 0.799999
    endloop
  endfacet
  facet normal 0 -0.205712 -0.978612
    outer loop
      vertex 0.0975008 0.5625 0.799999
      vertex 1.84662e-17 0.645664 0.782517
      vertex 0.0975008 0.645664 0.782517
    endloop
  endfacet
  facet normal 0 -0.205712 -0.978612
    outer loop
      vertex 1.84662e-17 0.645664 0.782517
      vertex 0.0975008 0.5625 0.799999
      vertex 0 0.5625 0.799999
    endloop
  endfacet
  facet normal 0 -0.205712 -0.978612
    outer loop
      vertex 1.0275 0.5625 0.799999
      vertex 1.125 0.645664 0.782517
      vertex 1.125 0.5625 0.799999
    endloop
  endfacet
  facet normal -0 -0.205712 -0.978612
    outer loop
      vertex 1.125 0.645664 0.782517
      vertex 1.0275 0.5625 0.799999
      vertex 1.0275 0.645664 0.782517
    endloop
  endfacet
  facet normal 0 0.755927 -0.654656
    outer loop
      vertex 1.125 0.327386 0.647213
      vertex 1.0275 0.399806 0.730836
      vertex 1.125 0.399806 0.730836
    endloop
  endfacet
  facet normal 0 0.755927 -0.654656
    outer loop
      vertex 1.0275 0.399806 0.730836
      vertex 1.125 0.327386 0.647213
      vertex 1.0275 0.327386 0.647213
    endloop
  endfacet
  facet normal 0 0.755927 -0.654656
    outer loop
      vertex 0.0975008 0.327386 0.647213
      vertex -3.61253e-17 0.399806 0.730836
      vertex 0.0975008 0.399806 0.730836
    endloop
  endfacet
  facet normal 0 0.755927 -0.654656
    outer loop
      vertex -3.61253e-17 0.399806 0.730836
      vertex 0.0975008 0.327386 0.647213
      vertex -5.22058e-17 0.327386 0.647213
    endloop
  endfacet
  facet normal 0 -0.755927 -0.654656
    outer loop
      vertex 5.22058e-17 0.797614 0.647213
      vertex 0.0975008 0.725194 0.730836
      vertex 3.61253e-17 0.725194 0.730836
    endloop
  endfacet
  facet normal 0 -0.755927 -0.654656
    outer loop
      vertex 0.0975008 0.725194 0.730836
      vertex 5.22058e-17 0.797614 0.647213
      vertex 0.0975008 0.797614 0.647213
    endloop
  endfacet
  facet normal 0 -0.755927 -0.654656
    outer loop
      vertex 1.0275 0.797614 0.647213
      vertex 1.125 0.725194 0.730836
      vertex 1.0275 0.725194 0.730836
    endloop
  endfacet
  facet normal 0 -0.755927 -0.654656
    outer loop
      vertex 1.125 0.725194 0.730836
      vertex 1.0275 0.797614 0.647213
      vertex 1.125 0.797614 0.647213
    endloop
  endfacet
  facet normal 0 1 -0
    outer loop
      vertex 1.125 0.164692 0
      vertex 1.0275 0.164692 0.083622
      vertex 1.125 0.164692 0.083622
    endloop
  endfacet
  facet normal 0 1 0
    outer loop
      vertex 1.0275 0.164692 0.083622
      vertex 1.125 0.164692 0
      vertex 1.0275 0.164692 0
    endloop
  endfacet
  facet normal 0 1 -0
    outer loop
      vertex 0.0975008 0.164692 0
      vertex -8.83311e-17 0.164692 0.083622
      vertex 0.0975008 0.164692 0.083622
    endloop
  endfacet
  facet normal 0 1 0
    outer loop
      vertex -8.83311e-17 0.164692 0.083622
      vertex 0.0975008 0.164692 0
      vertex -8.83311e-17 0.164692 0
    endloop
  endfacet
  facet normal 0 -1 0
    outer loop
      vertex 8.83311e-17 0.960308 0
      vertex 0.0975008 0.960308 0.083622
      vertex 8.83311e-17 0.960308 0.083622
    endloop
  endfacet
  facet normal 0 -1 -0
    outer loop
      vertex 0.0975008 0.960308 0.083622
      vertex 8.83311e-17 0.960308 0
      vertex 0.0975008 0.960308 0
    endloop
  endfacet
  facet normal 0 -1 0
    outer loop
      vertex 1.0275 0.960308 0
      vertex 1.125 0.960308 0.083622
      vertex 1.0275 0.960308 0.083622
    endloop
  endfacet
  facet normal 0 -1 -0
    outer loop
      vertex 1.125 0.960308 0.083622
      vertex 1.0275 0.960308 0
      vertex 1.125 0.960308 0
    endloop
  endfacet
  facet normal 0 0.939903 -0.341441
    outer loop
      vertex 1.125 0.21609 0.4
      vertex 1.0275 0.265243 0.535304
      vertex 1.125 0.265243 0.535304
    endloop
  endfacet
  facet normal 0 0.939903 -0.341441
    outer loop
      vertex 1.0275 0.265243 0.535304
      vertex 1.125 0.21609 0.4
      vertex 1.0275 0.21609 0.4
    endloop
  endfacet
  facet normal 0 0.939903 -0.341441
    outer loop
      vertex 0.0975008 0.21609 0.4
      vertex -6.60044e-17 0.265243 0.535304
      vertex 0.0975008 0.265243 0.535304
    endloop
  endfacet
  facet normal 0 0.939903 -0.341441
    outer loop
      vertex -6.60044e-17 0.265243 0.535304
      vertex 0.0975008 0.21609 0.4
      vertex -7.69184e-17 0.21609 0.4
    endloop
  endfacet
  facet normal 0 -0.544893 -0.838505
    outer loop
      vertex 1.0275 0.645664 0.782517
      vertex 1.125 0.725194 0.730836
      vertex 1.125 0.645664 0.782517
    endloop
  endfacet
  facet normal -0 -0.544893 -0.838505
    outer loop
      vertex 1.125 0.725194 0.730836
      vertex 1.0275 0.645664 0.782517
      vertex 1.0275 0.725194 0.730836
    endloop
  endfacet
  facet normal 0 -0.544893 -0.838505
    outer loop
      vertex 0.0975008 0.645664 0.782517
      vertex 3.61253e-17 0.725194 0.730836
      vertex 0.0975008 0.725194 0.730836
    endloop
  endfacet
  facet normal 0 -0.544893 -0.838505
    outer loop
      vertex 3.61253e-17 0.725194 0.730836
      vertex 0.0975008 0.645664 0.782517
      vertex 1.84662e-17 0.645664 0.782517
    endloop
  endfacet
  facet normal 0 -0.9944 -0.105679
    outer loop
      vertex 1.0275 0.960308 0.083622
      vertex 1.125 0.942923 0.247213
      vertex 1.0275 0.942923 0.247213
    endloop
  endfacet
  facet normal 0 -0.9944 -0.105679
    outer loop
      vertex 1.125 0.942923 0.247213
      vertex 1.0275 0.960308 0.083622
      vertex 1.125 0.960308 0.083622
    endloop
  endfacet
  facet normal 0 -0.9944 -0.105679
    outer loop
      vertex 8.83311e-17 0.960308 0.083622
      vertex 0.0975008 0.942923 0.247213
      vertex 8.44708e-17 0.942923 0.247213
    endloop
  endfacet
  facet normal 0 -0.9944 -0.105679
    outer loop
      vertex 0.0975008 0.942923 0.247213
      vertex 8.83311e-17 0.960308 0.083622
      vertex 0.0975008 0.960308 0.083622
    endloop
  endfacet
  facet normal 0 -0.874251 -0.485474
    outer loop
      vertex 6.60044e-17 0.859757 0.535304
      vertex 0.0975008 0.797614 0.647213
      vertex 5.22058e-17 0.797614 0.647213
    endloop
  endfacet
  facet normal 0 -0.874251 -0.485474
    outer loop
      vertex 0.0975008 0.797614 0.647213
      vertex 6.60044e-17 0.859757 0.535304
      vertex 0.0975008 0.859757 0.535304
    endloop
  endfacet
  facet normal 0 -0.874251 -0.485474
    outer loop
      vertex 1.0275 0.859757 0.535304
      vertex 1.125 0.797614 0.647213
      vertex 1.0275 0.797614 0.647213
    endloop
  endfacet
  facet normal 0 -0.874251 -0.485474
    outer loop
      vertex 1.125 0.797614 0.647213
      vertex 1.0275 0.859757 0.535304
      vertex 1.125 0.859757 0.535304
    endloop
  endfacet
  facet normal 0 -0.939903 -0.341441
    outer loop
      vertex 7.69184e-17 0.90891 0.4
      vertex 0.0975008 0.859757 0.535304
      vertex 6.60044e-17 0.859757 0.535304
    endloop
  endfacet
  facet normal 0 -0.939903 -0.341441
    outer loop
      vertex 0.0975008 0.859757 0.535304
      vertex 7.69184e-17 0.90891 0.4
      vertex 0.0975008 0.90891 0.4
    endloop
  endfacet
  facet normal 0 -0.939903 -0.341441
    outer loop
      vertex 1.0275 0.90891 0.4
      vertex 1.125 0.859757 0.535304
      vertex 1.0275 0.859757 0.535304
    endloop
  endfacet
  facet normal 0 -0.939903 -0.341441
    outer loop
      vertex 1.125 0.859757 0.535304
      vertex 1.0275 0.90891 0.4
      vertex 1.125 0.90891 0.4
    endloop
  endfacet
  facet normal 0 -0.976105 -0.217298
    outer loop
      vertex 8.44708e-17 0.942923 0.247213
      vertex 0.0975008 0.90891 0.4
      vertex 7.69184e-17 0.90891 0.4
    endloop
  endfacet
  facet normal 0 -0.976105 -0.217298
    outer loop
      vertex 0.0975008 0.90891 0.4
      vertex 8.44708e-17 0.942923 0.247213
      vertex 0.0975008 0.942923 0.247213
    endloop
  endfacet
  facet normal 0 -0.976105 -0.217298
    outer loop
      vertex 1.0275 0.942923 0.247213
      vertex 1.125 0.90891 0.4
      vertex 1.0275 0.90891 0.4
    endloop
  endfacet
  facet normal 0 -0.976105 -0.217298
    outer loop
      vertex 1.125 0.90891 0.4
      vertex 1.0275 0.942923 0.247213
      vertex 1.125 0.942923 0.247213
    endloop
  endfacet
  facet normal 0 0.976105 -0.217298
    outer loop
      vertex 1.125 0.182077 0.247213
      vertex 1.0275 0.21609 0.4
      vertex 1.125 0.21609 0.4
    endloop
  endfacet
  facet normal 0 0.976105 -0.217298
    outer loop
      vertex 1.0275 0.21609 0.4
      vertex 1.125 0.182077 0.247213
      vertex 1.0275 0.182077 0.247213
    endloop
  endfacet
  facet normal 0 0.976105 -0.217298
    outer loop
      vertex 0.0975008 0.182077 0.247213
      vertex -7.69184e-17 0.21609 0.4
      vertex 0.0975008 0.21609 0.4
    endloop
  endfacet
  facet normal 0 0.976105 -0.217298
    outer loop
      vertex -7.69184e-17 0.21609 0.4
      vertex 0.0975008 0.182077 0.247213
      vertex -8.44708e-17 0.182077 0.247213
    endloop
  endfacet
endsolid OpenSCAD_Model
